ply
format ascii 1.0
element vertex 652
property float x
property float y
property float z
property uchar red
property uchar green
property uchar blue
property uchar alpha
element face 1300
property list uchar int vertex_indices
end_header
-46 10 -14 0 0 255 255
-46 2 -14 0 0 255 255
-46 2 -22 0 0 255 255
-46 10 -22 0 0 255 255
-38 2 -14 0 0 255 255
-38 2 -22 0 0 255 255
-38 10 -22 0 0 255 255
-46 10 -6 0 0 255 255
-46 2 -6 0 0 255 255
-38 2 -6 0 0 255 255
-46 10 2 0 0 255 255
-46 2 2 0 0 255 255
-38 2 2 0 0 255 255
-38 10 2 0 0 255 255
-46 18 -14 0 0 255 255
-46 18 -22 0 0 255 255
-38 18 -22 0 0 255 255
-46 18 -6 0 0 255 255
-46 18 2 0 0 255 255
-46 18 10 0 0 255 255
-46 10 10 0 0 255 255
-38 10 10 0 0 255 255
-38 18 10 0 0 255 255
-46 26 -14 0 0 255 255
-46 26 -22 0 0 255 255
-38 26 -14 0 0 255 255
-38 26 -22 0 0 255 255
-46 26 -6 0 0 255 255
-46 26 2 0 0 255 255
-46 26 10 0 0 255 255
-46 26 18 0 0 255 255
-46 18 18 0 0 255 255
-38 18 18 0 0 255 255
-38 26 18 0 0 255 255
-38 26 10 0 0 255 255
-46 34 -6 0 0 255 255
-46 34 -14 0 0 255 255
-38 34 -6 0 0 255 255
-38 34 -14 0 0 255 255
-46 34 2 0 0 255 255
-38 34 2 0 0 255 255
-46 34 10 0 0 255 255
-38 34 10 0 0 255 255
-38 -14 -22 0 0 255 255
-38 -22 -22 0 0 255 255
-38 -22 -30 0 0 255 255
-38 -14 -30 0 0 255 255
-30 -22 -22 0 0 255 255
-30 -22 -30 0 0 255 255
-30 -14 -30 0 0 255 255
-30 -14 -22 0 0 255 255
-38 -6 -30 0 0 255 255
-38 -14 -38 0 0 255 255
-38 -6 -38 0 0 255 255
-30 -14 -38 0 0 255 255
-30 -6 -38 0 0 255 255
-38 -6 -22 0 0 255 255
-38 -6 -14 0 0 255 255
-38 -14 -14 0 0 255 255
-30 -14 -14 0 0 255 255
-30 -6 -14 0 0 255 255
-38 2 -30 0 0 255 255
-38 2 -38 0 0 255 255
-30 2 -38 0 0 255 255
-38 -6 -6 0 0 255 255
-30 -6 -6 0 0 255 255
-38 -6 2 0 0 255 255
-30 -6 2 0 0 255 255
-30 2 2 0 0 255 255
-38 10 -30 0 0 255 255
-38 10 -38 0 0 255 255
-30 10 -30 0 0 255 255
-30 10 -38 0 0 255 255
-38 2 10 0 0 255 255
-30 2 10 0 0 255 255
-38 10 18 0 0 255 255
-38 2 18 0 0 255 255
-30 2 18 0 0 255 255
-30 10 18 0 0 255 255
-38 18 -30 0 0 255 255
-30 18 -22 0 0 255 255
-30 18 -30 0 0 255 255
-38 18 26 0 0 255 255
-38 10 26 0 0 255 255
-30 10 26 0 0 255 255
-30 18 26 0 0 255 255
-30 26 -22 0 0 255 255
-38 26 26 0 0 255 255
-30 26 26 0 0 255 255
-30 26 18 0 0 255 255
-38 34 -22 0 0 255 255
-30 34 -14 0 0 255 255
-30 34 -22 0 0 255 255
-38 34 18 0 0 255 255
-30 34 18 0 0 255 255
-30 34 10 0 0 255 255
-38 42 -6 0 0 255 255
-38 42 -14 0 0 255 255
-30 42 -6 0 0 255 255
-30 42 -14 0 0 255 255
-38 42 2 0 0 255 255
-30 42 2 0 0 255 255
-38 42 10 0 0 255 255
-30 42 10 0 0 255 255
-30 -30 -30 0 0 255 255
-30 -30 -38 0 0 255 255
-30 -22 -38 0 0 255 255
-22 -30 -30 0 0 255 255
-22 -30 -38 0 0 255 255
-22 -22 -38 0 0 255 255
-30 -30 -22 0 0 255 255
-22 -30 -22 0 0 255 255
-30 -22 -14 0 0 255 255
-30 -30 -14 0 0 255 255
-22 -30 -14 0 0 255 255
-22 -22 -14 0 0 255 255
-22 -14 -38 0 0 255 255
-30 -14 -6 0 0 255 255
-30 -22 -6 0 0 255 255
-22 -22 -6 0 0 255 255
-22 -14 -6 0 0 255 255
-22 -6 -38 0 0 255 255
-30 -14 2 0 0 255 255
-22 -14 2 0 0 255 255
-30 -6 10 0 0 255 255
-30 -14 10 0 0 255 255
-22 -14 10 0 0 255 255
-22 -6 10 0 0 255 255
-22 2 -38 0 0 255 255
-30 -6 18 0 0 255 255
-22 -6 18 0 0 255 255
-30 2 26 0 0 255 255
-30 -6 26 0 0 255 255
-22 -6 26 0 0 255 255
-22 2 26 0 0 255 255
-22 10 -30 0 0 255 255
-22 10 -38 0 0 255 255
-30 10 34 0 0 255 255
-30 2 34 0 0 255 255
-22 2 34 0 0 255 255
-22 10 34 0 0 255 255
-22 18 -30 0 0 255 255
-30 18 34 0 0 255 255
-22 18 34 0 0 255 255
-22 18 26 0 0 255 255
-30 26 -30 0 0 255 255
-22 26 -22 0 0 255 255
-22 26 -30 0 0 255 255
-22 26 26 0 0 255 255
-22 34 -14 0 0 255 255
-22 26 -14 0 0 255 255
-22 34 -22 0 0 255 255
-22 34 18 0 0 255 255
-22 34 10 0 0 255 255
-30 34 26 0 0 255 255
-22 34 26 0 0 255 255
-22 42 -6 0 0 255 255
-22 34 -6 0 0 255 255
-22 42 -14 0 0 255 255
-22 42 2 0 0 255 255
-22 42 10 0 0 255 255
-22 -38 -22 0 0 255 255
-22 -38 -30 0 0 255 255
-14 -38 -22 0 0 255 255
-14 -38 -30 0 0 255 255
-14 -30 -30 0 0 255 255
-22 -38 -14 0 0 255 255
-14 -38 -14 0 0 255 255
-22 -30 -6 0 0 255 255
-22 -38 -6 0 0 255 255
-14 -38 -6 0 0 255 255
-14 -30 -6 0 0 255 255
-14 -30 -38 0 0 255 255
-14 -22 -38 0 0 255 255
-22 -22 2 0 0 255 255
-22 -30 2 0 0 255 255
-14 -30 2 0 0 255 255
-22 -22 10 0 0 255 255
-22 -30 10 0 0 255 255
-14 -30 10 0 0 255 255
-14 -22 10 0 0 255 255
-22 -22 -46 0 0 255 255
-22 -14 -46 0 0 255 255
-14 -14 -38 0 0 255 255
-14 -22 -46 0 0 255 255
-14 -14 -46 0 0 255 255
-22 -14 18 0 0 255 255
-22 -22 18 0 0 255 255
-14 -22 18 0 0 255 255
-14 -14 18 0 0 255 255
-22 -6 -46 0 0 255 255
-14 -6 -38 0 0 255 255
-14 -6 -46 0 0 255 255
-22 -14 26 0 0 255 255
-14 -14 26 0 0 255 255
-14 -6 26 0 0 255 255
-14 2 -38 0 0 255 255
-22 -6 34 0 0 255 255
-14 -6 34 0 0 255 255
-14 2 34 0 0 255 255
-14 10 -30 0 0 255 255
-14 10 -38 0 0 255 255
-22 10 42 0 0 255 255
-22 2 42 0 0 255 255
-14 2 42 0 0 255 255
-14 10 42 0 0 255 255
-14 18 -30 0 0 255 255
-22 18 42 0 0 255 255
-14 18 42 0 0 255 255
-14 18 34 0 0 255 255
-14 26 -22 0 0 255 255
-14 26 -30 0 0 255 255
-14 26 -14 0 0 255 255
-22 26 34 0 0 255 255
-14 26 34 0 0 255 255
-14 26 26 0 0 255 255
-14 34 -6 0 0 255 255
-14 26 -6 0 0 255 255
-14 34 -14 0 0 255 255
-14 34 2 0 0 255 255
-14 26 2 0 0 255 255
-14 34 18 0 0 255 255
-14 34 10 0 0 255 255
-14 34 26 0 0 255 255
-14 42 2 0 0 255 255
-14 42 -6 0 0 255 255
-14 42 10 0 0 255 255
-14 -46 -14 0 0 255 255
-14 -46 -22 0 0 255 255
-6 -46 -14 0 0 255 255
-6 -46 -22 0 0 255 255
-6 -38 -22 0 0 255 255
-14 -46 -6 0 0 255 255
-6 -46 -6 0 0 255 255
-14 -38 2 0 0 255 255
-14 -46 2 0 0 255 255
-6 -46 2 0 0 255 255
-6 -38 2 0 0 255 255
-6 -38 -30 0 0 255 255
-6 -30 -30 0 0 255 255
-14 -38 10 0 0 255 255
-6 -38 10 0 0 255 255
-14 -30 18 0 0 255 255
-14 -38 18 0 0 255 255
-6 -38 18 0 0 255 255
-6 -30 18 0 0 255 255
-6 -22 -30 0 0 255 255
-6 -30 -38 0 0 255 255
-6 -22 -38 0 0 255 255
-14 -22 26 0 0 255 255
-14 -30 26 0 0 255 255
-6 -30 26 0 0 255 255
-6 -22 26 0 0 255 255
-6 -14 -38 0 0 255 255
-14 -14 34 0 0 255 255
-14 -22 34 0 0 255 255
-6 -22 34 0 0 255 255
-6 -14 34 0 0 255 255
-6 -6 -38 0 0 255 255
-14 -6 42 0 0 255 255
-14 -14 42 0 0 255 255
-6 -14 42 0 0 255 255
-6 -6 42 0 0 255 255
-6 2 -38 0 0 255 255
-14 2 50 0 0 255 255
-14 -6 50 0 0 255 255
-6 -6 50 0 0 255 255
-6 2 50 0 0 255 255
-6 10 -30 0 0 255 255
-6 10 -38 0 0 255 255
-14 10 50 0 0 255 255
-6 10 50 0 0 255 255
-6 18 -30 0 0 255 255
-6 18 42 0 0 255 255
-6 18 34 0 0 255 255
-14 18 50 0 0 255 255
-6 18 50 0 0 255 255
-6 26 -22 0 0 255 255
-6 26 -30 0 0 255 255
-6 26 -14 0 0 255 255
-6 26 -6 0 0 255 255
-6 26 2 0 0 255 255
-6 26 34 0 0 255 255
-6 26 26 0 0 255 255
-6 34 10 0 0 255 255
-6 26 10 0 0 255 255
-6 34 2 0 0 255 255
-6 34 18 0 0 255 255
-6 26 18 0 0 255 255
-6 34 26 0 0 255 255
2 -46 -14 0 0 255 255
2 -46 -22 0 0 255 255
2 -38 -22 0 0 255 255
2 -46 -6 0 0 255 255
2 -46 2 0 0 255 255
-6 -46 10 0 0 255 255
2 -46 10 0 0 255 255
-6 -46 18 0 0 255 255
2 -46 18 0 0 255 255
-6 -38 26 0 0 255 255
-6 -46 26 0 0 255 255
2 -46 26 0 0 255 255
2 -38 26 0 0 255 255
2 -30 -22 0 0 255 255
2 -38 -30 0 0 255 255
2 -30 -30 0 0 255 255
-6 -30 34 0 0 255 255
-6 -38 34 0 0 255 255
2 -38 34 0 0 255 255
2 -30 34 0 0 255 255
2 -22 -22 0 0 255 255
2 -22 -30 0 0 255 255
-6 -22 42 0 0 255 255
-6 -30 42 0 0 255 255
2 -30 42 0 0 255 255
2 -22 42 0 0 255 255
2 -14 -30 0 0 255 255
2 -22 -38 0 0 255 255
2 -14 -38 0 0 255 255
-6 -14 50 0 0 255 255
-6 -22 50 0 0 255 255
2 -14 50 0 0 255 255
2 -22 50 0 0 255 255
2 -14 42 0 0 255 255
2 -6 -38 0 0 255 255
2 -6 50 0 0 255 255
2 2 -38 0 0 255 255
-6 2 58 0 0 255 255
-6 -6 58 0 0 255 255
2 2 58 0 0 255 255
2 -6 58 0 0 255 255
2 2 50 0 0 255 255
2 10 -38 0 0 255 255
-6 10 58 0 0 255 255
2 10 58 0 0 255 255
2 10 50 0 0 255 255
-6 18 -38 0 0 255 255
2 18 -30 0 0 255 255
2 18 -38 0 0 255 255
2 18 42 0 0 255 255
2 18 34 0 0 255 255
2 18 50 0 0 255 255
2 10 42 0 0 255 255
2 26 -22 0 0 255 255
2 26 -30 0 0 255 255
2 26 -14 0 0 255 255
2 26 -6 0 0 255 255
2 26 2 0 0 255 255
2 26 10 0 0 255 255
2 26 18 0 0 255 255
2 26 26 0 0 255 255
2 26 34 0 0 255 255
2 -54 2 0 0 255 255
2 -54 -6 0 0 255 255
10 -46 2 0 0 255 255
10 -54 2 0 0 255 255
10 -54 -6 0 0 255 255
10 -46 -6 0 0 255 255
2 -54 10 0 0 255 255
10 -46 10 0 0 255 255
10 -54 10 0 0 255 255
2 -54 18 0 0 255 255
10 -46 18 0 0 255 255
10 -54 18 0 0 255 255
10 -38 -14 0 0 255 255
10 -46 -14 0 0 255 255
10 -46 -22 0 0 255 255
10 -38 -22 0 0 255 255
10 -38 -6 0 0 255 255
10 -46 26 0 0 255 255
10 -38 26 0 0 255 255
10 -30 -14 0 0 255 255
10 -30 -22 0 0 255 255
10 -30 -6 0 0 255 255
10 -30 34 0 0 255 255
10 -38 34 0 0 255 255
10 -30 26 0 0 255 255
10 -22 -14 0 0 255 255
10 -22 -22 0 0 255 255
10 -22 -6 0 0 255 255
10 -22 42 0 0 255 255
10 -30 42 0 0 255 255
10 -22 34 0 0 255 255
10 -22 -30 0 0 255 255
10 -14 -30 0 0 255 255
10 -14 42 0 0 255 255
10 -14 34 0 0 255 255
10 -14 -38 0 0 255 255
10 -6 -38 0 0 255 255
10 -6 50 0 0 255 255
10 -14 50 0 0 255 255
10 -6 42 0 0 255 255
10 2 -38 0 0 255 255
10 2 50 0 0 255 255
10 2 42 0 0 255 255
10 10 -38 0 0 255 255
10 10 50 0 0 255 255
10 10 42 0 0 255 255
10 18 -30 0 0 255 255
10 18 -38 0 0 255 255
10 18 42 0 0 255 255
10 18 34 0 0 255 255
10 26 -30 0 0 255 255
10 26 2 0 0 255 255
10 26 -6 0 0 255 255
10 26 10 0 0 255 255
10 26 18 0 0 255 255
10 26 26 0 0 255 255
10 26 34 0 0 255 255
2 34 -22 0 0 255 255
2 34 -30 0 0 255 255
10 34 -22 0 0 255 255
10 34 -30 0 0 255 255
2 34 -14 0 0 255 255
10 34 -14 0 0 255 255
2 34 -6 0 0 255 255
10 34 -6 0 0 255 255
18 -38 2 0 0 255 255
18 -46 2 0 0 255 255
18 -46 -6 0 0 255 255
18 -38 -6 0 0 255 255
18 -38 10 0 0 255 255
18 -46 10 0 0 255 255
18 -38 18 0 0 255 255
18 -46 18 0 0 255 255
18 -38 26 0 0 255 255
18 -46 26 0 0 255 255
18 -30 2 0 0 255 255
18 -30 -6 0 0 255 255
18 -30 10 0 0 255 255
18 -30 18 0 0 255 255
18 -30 26 0 0 255 255
18 -22 2 0 0 255 255
18 -22 -6 0 0 255 255
18 -22 10 0 0 255 255
18 -22 18 0 0 255 255
18 -22 26 0 0 255 255
18 -22 34 0 0 255 255
18 -30 34 0 0 255 255
18 -22 -22 0 0 255 255
18 -22 -30 0 0 255 255
18 -14 -30 0 0 255 255
18 -22 -14 0 0 255 255
18 -14 34 0 0 255 255
18 -14 26 0 0 255 255
18 -6 -30 0 0 255 255
18 -14 -38 0 0 255 255
18 -6 -38 0 0 255 255
18 -6 42 0 0 255 255
18 -14 42 0 0 255 255
18 -6 34 0 0 255 255
18 2 -38 0 0 255 255
18 2 42 0 0 255 255
18 10 -38 0 0 255 255
18 10 50 0 0 255 255
18 2 50 0 0 255 255
18 10 42 0 0 255 255
18 18 -30 0 0 255 255
18 18 -38 0 0 255 255
18 18 42 0 0 255 255
18 10 34 0 0 255 255
18 18 34 0 0 255 255
18 26 -30 0 0 255 255
18 26 26 0 0 255 255
18 26 18 0 0 255 255
18 26 34 0 0 255 255
18 34 -22 0 0 255 255
18 34 -30 0 0 255 255
18 34 -14 0 0 255 255
18 34 -6 0 0 255 255
10 34 2 0 0 255 255
10 34 10 0 0 255 255
18 34 10 0 0 255 255
18 34 2 0 0 255 255
10 34 18 0 0 255 255
18 34 18 0 0 255 255
10 42 2 0 0 255 255
10 42 -6 0 0 255 255
18 42 2 0 0 255 255
18 42 -6 0 0 255 255
26 -14 -22 0 0 255 255
26 -22 -22 0 0 255 255
26 -22 -30 0 0 255 255
26 -14 -30 0 0 255 255
26 -22 -14 0 0 255 255
26 -22 -6 0 0 255 255
26 -22 2 0 0 255 255
26 -22 10 0 0 255 255
26 -22 18 0 0 255 255
26 -14 26 0 0 255 255
26 -22 26 0 0 255 255
26 -14 18 0 0 255 255
26 -6 -30 0 0 255 255
26 -6 34 0 0 255 255
26 -14 34 0 0 255 255
26 -6 26 0 0 255 255
26 2 -30 0 0 255 255
26 -6 -38 0 0 255 255
26 2 -38 0 0 255 255
26 2 34 0 0 255 255
26 2 26 0 0 255 255
26 2 42 0 0 255 255
26 -6 42 0 0 255 255
26 10 -38 0 0 255 255
26 10 42 0 0 255 255
26 10 34 0 0 255 255
26 18 -30 0 0 255 255
26 10 -30 0 0 255 255
26 18 -38 0 0 255 255
26 18 34 0 0 255 255
26 26 -30 0 0 255 255
26 26 34 0 0 255 255
26 18 26 0 0 255 255
26 26 26 0 0 255 255
26 34 -30 0 0 255 255
18 34 26 0 0 255 255
26 34 26 0 0 255 255
26 34 18 0 0 255 255
18 42 -22 0 0 255 255
18 42 -30 0 0 255 255
26 42 -22 0 0 255 255
26 34 -22 0 0 255 255
26 42 -30 0 0 255 255
18 42 -14 0 0 255 255
26 42 -14 0 0 255 255
18 42 10 0 0 255 255
26 42 10 0 0 255 255
26 42 2 0 0 255 255
18 42 18 0 0 255 255
26 42 18 0 0 255 255
18 50 -6 0 0 255 255
18 50 -14 0 0 255 255
26 50 -6 0 0 255 255
26 42 -6 0 0 255 255
26 50 -14 0 0 255 255
18 50 2 0 0 255 255
26 50 2 0 0 255 255
34 -22 -14 0 0 255 255
34 -22 -22 0 0 255 255
34 -14 -22 0 0 255 255
34 -22 -6 0 0 255 255
34 -22 2 0 0 255 255
34 -22 10 0 0 255 255
34 -22 18 0 0 255 255
34 -14 18 0 0 255 255
34 -6 -22 0 0 255 255
34 -14 -30 0 0 255 255
34 -6 -30 0 0 255 255
34 -6 26 0 0 255 255
34 -14 26 0 0 255 255
34 -6 18 0 0 255 255
34 2 -30 0 0 255 255
34 2 26 0 0 255 255
34 2 18 0 0 255 255
34 10 -30 0 0 255 255
34 2 -38 0 0 255 255
34 10 -38 0 0 255 255
34 10 26 0 0 255 255
34 10 18 0 0 255 255
34 10 34 0 0 255 255
34 2 34 0 0 255 255
34 18 -30 0 0 255 255
34 18 26 0 0 255 255
34 18 18 0 0 255 255
34 18 34 0 0 255 255
34 26 -22 0 0 255 255
34 18 -22 0 0 255 255
34 26 -30 0 0 255 255
34 26 26 0 0 255 255
34 26 18 0 0 255 255
34 34 -22 0 0 255 255
34 34 -30 0 0 255 255
34 34 -14 0 0 255 255
34 26 -14 0 0 255 255
34 34 18 0 0 255 255
34 26 10 0 0 255 255
34 34 10 0 0 255 255
34 34 26 0 0 255 255
34 42 -14 0 0 255 255
34 42 -22 0 0 255 255
34 42 -6 0 0 255 255
34 34 -6 0 0 255 255
34 42 2 0 0 255 255
34 34 2 0 0 255 255
34 42 10 0 0 255 255
34 42 18 0 0 255 255
42 -14 -14 0 0 255 255
42 -22 -14 0 0 255 255
42 -22 -22 0 0 255 255
42 -14 -22 0 0 255 255
42 -14 -6 0 0 255 255
42 -22 -6 0 0 255 255
42 -14 2 0 0 255 255
42 -22 2 0 0 255 255
42 -14 10 0 0 255 255
42 -22 10 0 0 255 255
42 -14 18 0 0 255 255
42 -22 18 0 0 255 255
42 -6 -14 0 0 255 255
42 -6 -22 0 0 255 255
42 -6 18 0 0 255 255
42 -6 10 0 0 255 255
42 2 -22 0 0 255 255
42 -6 -30 0 0 255 255
42 2 -30 0 0 255 255
42 2 -14 0 0 255 255
42 2 18 0 0 255 255
42 2 10 0 0 255 255
42 10 -22 0 0 255 255
42 10 -30 0 0 255 255
42 10 -14 0 0 255 255
42 10 18 0 0 255 255
42 10 10 0 0 255 255
42 18 -22 0 0 255 255
42 18 -30 0 0 255 255
42 18 -14 0 0 255 255
42 18 -6 0 0 255 255
42 10 -6 0 0 255 255
42 18 18 0 0 255 255
42 18 10 0 0 255 255
42 26 -14 0 0 255 255
42 26 -22 0 0 255 255
42 26 -6 0 0 255 255
42 26 10 0 0 255 255
42 18 2 0 0 255 255
42 26 2 0 0 255 255
42 26 18 0 0 255 255
42 34 -6 0 0 255 255
42 34 -14 0 0 255 255
42 34 2 0 0 255 255
42 34 10 0 0 255 255
50 -6 -6 0 0 255 255
50 -14 -6 0 0 255 255
50 -14 -14 0 0 255 255
50 -6 -14 0 0 255 255
50 -6 2 0 0 255 255
50 -14 2 0 0 255 255
50 -6 10 0 0 255 255
50 -14 10 0 0 255 255
50 2 -6 0 0 255 255
50 2 -14 0 0 255 255
50 2 2 0 0 255 255
50 2 10 0 0 255 255
50 10 -6 0 0 255 255
50 10 -14 0 0 255 255
50 10 2 0 0 255 255
50 10 10 0 0 255 255
50 18 2 0 0 255 255
50 18 -6 0 0 255 255
50 18 10 0 0 255 255
50 26 2 0 0 255 255
50 26 -6 0 0 255 255
3 0 1 2
3 0 2 3
3 4 5 2
3 4 2 1
3 2 5 6
3 2 6 3
3 7 8 1
3 7 1 0
3 9 4 1
3 9 1 8
3 10 11 8
3 10 8 7
3 12 9 8
3 12 8 11
3 11 12 13
3 11 13 10
3 14 0 3
3 14 3 15
3 3 6 16
3 3 16 15
3 17 7 0
3 17 0 14
3 18 10 7
3 18 7 17
3 19 20 10
3 19 10 18
3 21 13 10
3 21 10 20
3 20 21 22
3 20 22 19
3 23 14 15
3 23 15 24
3 25 26 24
3 25 24 23
3 15 16 26
3 15 26 24
3 27 17 14
3 27 14 23
3 28 18 17
3 28 17 27
3 29 19 18
3 29 18 28
3 30 31 19
3 30 19 29
3 32 22 19
3 32 19 31
3 33 34 29
3 33 29 30
3 31 32 33
3 31 33 30
3 35 27 23
3 35 23 36
3 37 38 36
3 37 36 35
3 23 25 38
3 23 38 36
3 39 28 27
3 39 27 35
3 40 37 35
3 40 35 39
3 41 29 28
3 41 28 39
3 42 40 39
3 42 39 41
3 29 34 42
3 29 42 41
3 43 44 45
3 43 45 46
3 47 48 45
3 47 45 44
3 45 48 49
3 45 49 46
3 44 47 50
3 44 50 43
3 51 46 52
3 51 52 53
3 49 54 52
3 49 52 46
3 52 54 55
3 52 55 53
3 56 43 46
3 56 46 51
3 57 58 43
3 57 43 56
3 59 50 43
3 59 43 58
3 58 59 60
3 58 60 57
3 61 51 53
3 61 53 62
3 53 55 63
3 53 63 62
3 5 56 51
3 5 51 61
3 4 57 56
3 4 56 5
3 9 64 57
3 9 57 4
3 65 60 57
3 65 57 64
3 12 66 64
3 12 64 9
3 67 65 64
3 67 64 66
3 66 67 68
3 66 68 12
3 69 61 62
3 69 62 70
3 71 72 70
3 71 70 69
3 62 63 72
3 62 72 70
3 6 5 61
3 6 61 69
3 21 73 12
3 21 12 13
3 74 68 12
3 74 12 73
3 75 76 73
3 75 73 21
3 77 74 73
3 77 73 76
3 76 77 78
3 76 78 75
3 16 6 69
3 16 69 79
3 80 81 79
3 80 79 16
3 69 71 81
3 69 81 79
3 32 75 21
3 32 21 22
3 82 83 75
3 82 75 32
3 84 78 75
3 84 75 83
3 83 84 85
3 83 85 82
3 16 80 86
3 16 86 26
3 87 82 32
3 87 32 33
3 88 89 33
3 88 33 87
3 82 85 88
3 82 88 87
3 38 25 26
3 38 26 90
3 91 92 90
3 91 90 38
3 26 86 92
3 26 92 90
3 93 33 34
3 93 34 42
3 94 95 42
3 94 42 93
3 33 89 94
3 33 94 93
3 96 37 38
3 96 38 97
3 98 99 97
3 98 97 96
3 38 91 99
3 38 99 97
3 100 40 37
3 100 37 96
3 101 98 96
3 101 96 100
3 102 42 40
3 102 40 100
3 103 101 100
3 103 100 102
3 42 95 103
3 42 103 102
3 48 104 105
3 48 105 106
3 107 108 105
3 107 105 104
3 105 108 109
3 105 109 106
3 47 110 104
3 47 104 48
3 111 107 104
3 111 104 110
3 112 113 110
3 112 110 47
3 114 111 110
3 114 110 113
3 113 114 115
3 113 115 112
3 49 48 106
3 49 106 54
3 106 109 116
3 106 116 54
3 59 112 47
3 59 47 50
3 117 118 112
3 117 112 59
3 119 115 112
3 119 112 118
3 118 119 120
3 118 120 117
3 54 116 121
3 54 121 55
3 65 117 59
3 65 59 60
3 67 122 117
3 67 117 65
3 123 120 117
3 123 117 122
3 124 125 122
3 124 122 67
3 126 123 122
3 126 122 125
3 125 126 127
3 125 127 124
3 55 121 128
3 55 128 63
3 74 124 67
3 74 67 68
3 77 129 124
3 77 124 74
3 130 127 124
3 130 124 129
3 131 132 129
3 131 129 77
3 133 130 129
3 133 129 132
3 132 133 134
3 132 134 131
3 135 136 72
3 135 72 71
3 63 128 136
3 63 136 72
3 84 131 77
3 84 77 78
3 137 138 131
3 137 131 84
3 139 134 131
3 139 131 138
3 138 139 140
3 138 140 137
3 71 135 141
3 71 141 81
3 142 137 84
3 142 84 85
3 143 144 85
3 143 85 142
3 137 140 143
3 137 143 142
3 86 80 81
3 86 81 145
3 146 147 145
3 146 145 86
3 81 141 147
3 81 147 145
3 85 144 148
3 85 148 88
3 149 150 146
3 149 146 151
3 149 151 92
3 149 92 91
3 86 146 151
3 86 151 92
3 152 153 95
3 152 95 94
3 154 88 89
3 154 89 94
3 155 152 94
3 155 94 154
3 88 148 155
3 88 155 154
3 156 157 149
3 156 149 158
3 156 158 99
3 156 99 98
3 91 149 158
3 91 158 99
3 159 156 98
3 159 98 101
3 160 159 101
3 160 101 103
3 95 153 160
3 95 160 103
3 111 161 162
3 111 162 107
3 163 164 162
3 163 162 161
3 162 164 165
3 162 165 107
3 114 166 161
3 114 161 111
3 167 163 161
3 167 161 166
3 168 169 166
3 168 166 114
3 170 167 166
3 170 166 169
3 169 170 171
3 169 171 168
3 165 172 108
3 165 108 107
3 108 172 173
3 108 173 109
3 119 168 114
3 119 114 115
3 174 175 168
3 174 168 119
3 176 171 168
3 176 168 175
3 177 178 175
3 177 175 174
3 179 176 175
3 179 175 178
3 178 179 180
3 178 180 177
3 116 109 181
3 116 181 182
3 183 173 184
3 183 184 185
3 173 184 181
3 173 181 109
3 181 184 185
3 181 185 182
3 123 174 119
3 123 119 120
3 126 177 174
3 126 174 123
3 186 187 177
3 186 177 126
3 188 180 177
3 188 177 187
3 187 188 189
3 187 189 186
3 121 116 182
3 121 182 190
3 191 183 185
3 191 185 192
3 191 192 190
3 191 190 121
3 182 185 192
3 182 192 190
3 130 186 126
3 130 126 127
3 133 193 186
3 133 186 130
3 194 189 186
3 194 186 193
3 193 194 195
3 193 195 133
3 121 191 196
3 121 196 128
3 139 197 133
3 139 133 134
3 198 195 133
3 198 133 197
3 197 198 199
3 197 199 139
3 200 201 136
3 200 136 135
3 128 196 201
3 128 201 136
3 202 203 139
3 202 139 140
3 204 199 139
3 204 139 203
3 203 204 205
3 203 205 202
3 135 200 206
3 135 206 141
3 207 202 140
3 207 140 143
3 208 209 143
3 208 143 207
3 202 205 208
3 202 208 207
3 210 211 147
3 210 147 146
3 141 206 211
3 141 211 147
3 212 210 146
3 212 146 150
3 213 143 144
3 213 144 148
3 214 215 148
3 214 148 213
3 143 209 214
3 143 214 213
3 216 217 212
3 216 212 218
3 216 218 149
3 216 149 157
3 150 212 218
3 150 218 149
3 219 220 217
3 219 217 216
3 221 222 153
3 221 153 152
3 223 221 152
3 223 152 155
3 148 215 223
3 148 223 155
3 224 219 216
3 224 216 225
3 224 225 156
3 224 156 159
3 157 216 225
3 157 225 156
3 226 222 219
3 226 219 224
3 226 224 159
3 226 159 160
3 153 222 226
3 153 226 160
3 167 227 228
3 167 228 163
3 229 230 228
3 229 228 227
3 228 230 231
3 228 231 163
3 170 232 227
3 170 227 167
3 233 229 227
3 233 227 232
3 234 235 232
3 234 232 170
3 236 233 232
3 236 232 235
3 235 236 237
3 235 237 234
3 231 238 164
3 231 164 163
3 164 238 239
3 164 239 165
3 176 234 170
3 176 170 171
3 179 240 234
3 179 234 176
3 241 237 234
3 241 234 240
3 242 243 240
3 242 240 179
3 244 241 240
3 244 240 243
3 243 244 245
3 243 245 242
3 246 239 247
3 246 247 248
3 239 247 172
3 239 172 165
3 172 247 248
3 172 248 173
3 188 242 179
3 188 179 180
3 249 250 242
3 249 242 188
3 251 245 242
3 251 242 250
3 250 251 252
3 250 252 249
3 173 248 253
3 173 253 183
3 194 249 188
3 194 188 189
3 254 255 249
3 254 249 194
3 256 252 249
3 256 249 255
3 255 256 257
3 255 257 254
3 183 253 258
3 183 258 191
3 198 254 194
3 198 194 195
3 259 260 254
3 259 254 198
3 261 257 254
3 261 254 260
3 260 261 262
3 260 262 259
3 191 258 263
3 191 263 196
3 204 259 198
3 204 198 199
3 264 265 259
3 264 259 204
3 266 262 259
3 266 259 265
3 265 266 267
3 265 267 264
3 268 269 201
3 268 201 200
3 196 263 269
3 196 269 201
3 270 264 204
3 270 204 205
3 264 267 271
3 264 271 270
3 200 268 272
3 200 272 206
3 273 274 209
3 273 209 208
3 275 270 205
3 275 205 208
3 276 273 208
3 276 208 275
3 270 271 276
3 270 276 275
3 277 278 211
3 277 211 210
3 206 272 278
3 206 278 211
3 279 277 210
3 279 210 212
3 280 279 212
3 280 212 217
3 281 280 217
3 281 217 220
3 282 283 215
3 282 215 214
3 209 274 282
3 209 282 214
3 284 285 281
3 284 281 286
3 284 286 219
3 284 219 222
3 220 281 286
3 220 286 219
3 287 288 285
3 287 285 284
3 287 284 222
3 287 222 221
3 289 283 288
3 289 288 287
3 289 287 221
3 289 221 223
3 215 283 289
3 215 289 223
3 290 291 230
3 290 230 229
3 230 291 292
3 230 292 231
3 293 290 229
3 293 229 233
3 294 293 233
3 294 233 236
3 241 295 236
3 241 236 237
3 296 294 236
3 296 236 295
3 244 297 295
3 244 295 241
3 298 296 295
3 298 295 297
3 299 300 297
3 299 297 244
3 301 298 297
3 301 297 300
3 300 301 302
3 300 302 299
3 303 292 304
3 303 304 305
3 292 304 238
3 292 238 231
3 238 304 305
3 238 305 239
3 251 299 244
3 251 244 245
3 306 307 299
3 306 299 251
3 308 302 299
3 308 299 307
3 307 308 309
3 307 309 306
3 310 303 305
3 310 305 311
3 239 305 311
3 239 311 246
3 256 306 251
3 256 251 252
3 312 313 306
3 312 306 256
3 314 309 306
3 314 306 313
3 313 314 315
3 313 315 312
3 316 311 317
3 316 317 318
3 311 317 248
3 311 248 246
3 248 317 318
3 248 318 253
3 261 312 256
3 261 256 257
3 319 320 312
3 319 312 261
3 321 322 315
3 321 315 323
3 322 315 312
3 322 312 320
3 320 322 321
3 320 321 319
3 253 318 324
3 253 324 258
3 266 319 261
3 266 261 262
3 319 321 325
3 319 325 266
3 258 324 326
3 258 326 263
3 327 328 266
3 327 266 267
3 329 330 325
3 329 325 331
3 330 325 266
3 330 266 328
3 328 330 329
3 328 329 327
3 263 326 332
3 263 332 269
3 333 327 267
3 333 267 271
3 334 329 331
3 334 331 335
3 334 335 271
3 334 271 333
3 327 329 334
3 327 334 333
3 272 268 269
3 272 269 336
3 337 338 336
3 337 336 272
3 269 332 338
3 269 338 336
3 339 340 274
3 339 274 273
3 341 335 342
3 341 342 339
3 341 339 273
3 341 273 276
3 271 335 341
3 271 341 276
3 343 344 278
3 343 278 277
3 272 337 344
3 272 344 278
3 345 343 277
3 345 277 279
3 346 345 279
3 346 279 280
3 347 346 280
3 347 280 281
3 348 347 281
3 348 281 285
3 349 348 285
3 349 285 288
3 350 349 288
3 350 288 283
3 351 350 283
3 351 283 282
3 274 340 351
3 274 351 282
3 294 352 353
3 294 353 293
3 354 355 356
3 354 356 357
3 355 356 353
3 355 353 352
3 353 356 357
3 353 357 293
3 296 358 352
3 296 352 294
3 359 360 355
3 359 355 354
3 360 355 352
3 360 352 358
3 298 361 358
3 298 358 296
3 362 363 360
3 362 360 359
3 363 360 358
3 363 358 361
3 361 363 362
3 361 362 298
3 364 365 366
3 364 366 367
3 365 366 291
3 365 291 290
3 291 366 367
3 291 367 292
3 368 357 365
3 368 365 364
3 357 365 290
3 357 290 293
3 369 362 298
3 369 298 301
3 301 369 370
3 301 370 302
3 371 364 367
3 371 367 372
3 292 367 372
3 292 372 303
3 373 368 364
3 373 364 371
3 374 375 370
3 374 370 376
3 375 370 302
3 375 302 308
3 308 375 374
3 308 374 309
3 377 371 372
3 377 372 378
3 303 372 378
3 303 378 310
3 379 373 371
3 379 371 377
3 380 381 374
3 380 374 382
3 381 374 309
3 381 309 314
3 314 381 380
3 314 380 315
3 378 383 311
3 378 311 310
3 311 383 384
3 311 384 316
3 385 380 382
3 385 382 386
3 315 380 385
3 315 385 323
3 384 387 318
3 384 318 316
3 318 387 388
3 318 388 324
3 389 390 385
3 389 385 391
3 390 385 323
3 390 323 321
3 321 390 389
3 321 389 325
3 324 388 392
3 324 392 326
3 393 389 391
3 393 391 394
3 325 389 393
3 325 393 331
3 326 392 395
3 326 395 332
3 396 397 342
3 396 342 335
3 331 393 396
3 331 396 335
3 398 399 338
3 398 338 337
3 332 395 399
3 332 399 338
3 400 401 340
3 400 340 339
3 342 397 400
3 342 400 339
3 337 398 402
3 337 402 344
3 403 404 346
3 403 346 347
3 405 403 347
3 405 347 348
3 406 405 348
3 406 348 349
3 407 406 349
3 407 349 350
3 408 407 350
3 408 350 351
3 340 401 408
3 340 408 351
3 409 343 344
3 409 344 410
3 411 412 410
3 411 410 409
3 344 402 412
3 344 412 410
3 413 345 343
3 413 343 409
3 414 411 409
3 414 409 413
3 415 346 345
3 415 345 413
3 416 414 413
3 416 413 415
3 346 404 416
3 346 416 415
3 417 418 419
3 417 419 420
3 418 419 357
3 418 357 354
3 357 419 420
3 357 420 368
3 421 422 418
3 421 418 417
3 422 418 354
3 422 354 359
3 423 424 422
3 423 422 421
3 424 422 359
3 424 359 362
3 425 426 424
3 425 424 423
3 426 424 362
3 426 362 369
3 369 426 425
3 369 425 370
3 427 417 420
3 427 420 428
3 368 420 428
3 368 428 373
3 429 421 417
3 429 417 427
3 430 423 421
3 430 421 429
3 431 425 423
3 431 423 430
3 370 425 431
3 370 431 376
3 432 427 428
3 432 428 433
3 373 428 433
3 373 433 379
3 434 429 427
3 434 427 432
3 435 430 429
3 435 429 434
3 436 431 430
3 436 430 435
3 437 438 431
3 437 431 436
3 438 431 376
3 438 376 374
3 374 438 437
3 374 437 382
3 439 440 383
3 439 383 378
3 383 440 441
3 383 441 384
3 442 439 378
3 442 378 377
3 433 442 377
3 433 377 379
3 443 437 436
3 443 436 444
3 382 437 443
3 382 443 386
3 445 441 446
3 445 446 447
3 441 446 387
3 441 387 384
3 387 446 447
3 387 447 388
3 448 449 443
3 448 443 450
3 449 443 386
3 449 386 385
3 385 449 448
3 385 448 391
3 388 447 451
3 388 451 392
3 391 448 452
3 391 452 394
3 392 451 453
3 392 453 395
3 454 455 452
3 454 452 456
3 455 452 394
3 455 394 393
3 454 456 397
3 454 397 396
3 393 455 454
3 393 454 396
3 457 458 399
3 457 399 398
3 395 453 458
3 395 458 399
3 459 456 460
3 459 460 461
3 459 461 401
3 459 401 400
3 397 456 459
3 397 459 400
3 398 457 462
3 398 462 402
3 463 464 406
3 463 406 407
3 465 463 407
3 465 407 408
3 401 461 465
3 401 465 408
3 466 467 412
3 466 412 411
3 402 462 467
3 402 467 412
3 468 466 411
3 468 411 414
3 469 468 414
3 469 414 416
3 470 403 404
3 470 404 416
3 471 405 403
3 471 403 470
3 472 473 470
3 472 470 471
3 474 406 405
3 474 405 471
3 475 472 471
3 475 471 474
3 406 464 475
3 406 475 474
3 476 470 416
3 476 416 477
3 478 479 477
3 478 477 476
3 416 469 479
3 416 479 477
3 470 473 478
3 470 478 476
3 480 481 482
3 480 482 483
3 481 482 440
3 481 440 439
3 440 482 483
3 440 483 441
3 484 481 439
3 484 439 442
3 485 484 442
3 485 442 433
3 486 485 433
3 486 433 432
3 487 486 432
3 487 432 434
3 488 487 434
3 488 434 435
3 489 490 488
3 489 488 491
3 490 488 435
3 490 435 436
3 436 490 489
3 436 489 444
3 441 483 492
3 441 492 445
3 493 494 489
3 493 489 495
3 494 489 444
3 494 444 443
3 443 494 493
3 443 493 450
3 496 492 497
3 496 497 498
3 492 497 447
3 492 447 445
3 447 497 498
3 447 498 451
3 499 493 495
3 499 495 500
3 501 502 493
3 501 493 499
3 502 493 450
3 502 450 448
3 448 502 501
3 448 501 452
3 451 498 503
3 451 503 453
3 504 501 499
3 504 499 505
3 504 505 460
3 504 460 456
3 452 501 504
3 452 504 456
3 506 507 503
3 506 503 508
3 506 508 458
3 506 458 457
3 453 503 508
3 453 508 458
3 460 505 509
3 460 509 461
3 457 506 510
3 457 510 462
3 511 509 512
3 511 512 513
3 511 513 463
3 511 463 465
3 461 509 511
3 461 511 465
3 462 510 514
3 462 514 467
3 515 463 464
3 515 464 475
3 516 517 475
3 516 475 515
3 463 513 516
3 463 516 515
3 518 466 467
3 518 467 519
3 520 521 514
3 520 514 522
3 520 522 519
3 520 519 518
3 467 514 522
3 467 522 519
3 523 468 466
3 523 466 518
3 524 520 518
3 524 518 523
3 479 469 468
3 479 468 523
3 525 472 473
3 525 473 478
3 526 527 478
3 526 478 525
3 528 475 472
3 528 472 525
3 529 526 525
3 529 525 528
3 475 517 529
3 475 529 528
3 530 479 523
3 530 523 531
3 532 533 524
3 532 524 534
3 532 534 531
3 532 531 530
3 523 524 534
3 523 534 531
3 535 478 479
3 535 479 530
3 536 527 533
3 536 533 532
3 536 532 530
3 536 530 535
3 478 527 536
3 478 536 535
3 537 538 481
3 537 481 484
3 481 538 539
3 481 539 480
3 540 537 484
3 540 484 485
3 541 540 485
3 541 485 486
3 542 541 486
3 542 486 487
3 543 542 487
3 543 487 488
3 488 543 544
3 488 544 491
3 545 539 546
3 545 546 547
3 539 546 483
3 539 483 480
3 483 546 547
3 483 547 492
3 548 549 544
3 548 544 550
3 549 544 491
3 549 491 489
3 489 549 548
3 489 548 495
3 492 547 551
3 492 551 496
3 552 548 550
3 552 550 553
3 495 548 552
3 495 552 500
3 554 551 555
3 554 555 556
3 551 555 498
3 551 498 496
3 554 556 503
3 554 503 507
3 498 555 556
3 498 556 503
3 557 552 553
3 557 553 558
3 559 560 552
3 559 552 557
3 560 552 500
3 560 500 499
3 499 560 559
3 499 559 505
3 507 554 561
3 507 561 506
3 562 557 558
3 562 558 563
3 564 559 557
3 564 557 562
3 564 562 512
3 564 512 509
3 505 559 564
3 505 564 509
3 565 566 561
3 565 561 567
3 506 561 567
3 506 567 510
3 568 562 563
3 568 563 569
3 512 562 568
3 512 568 513
3 570 565 567
3 570 567 571
3 570 571 514
3 570 514 521
3 510 567 571
3 510 571 514
3 572 573 565
3 572 565 570
3 574 569 575
3 574 575 576
3 577 568 569
3 577 569 574
3 577 574 517
3 577 517 516
3 513 568 577
3 513 577 516
3 578 572 570
3 578 570 579
3 578 579 520
3 578 520 524
3 521 570 579
3 521 579 520
3 580 581 572
3 580 572 578
3 580 578 524
3 580 524 533
3 582 583 581
3 582 581 580
3 582 580 533
3 582 533 527
3 584 576 583
3 584 583 582
3 584 582 527
3 584 527 526
3 585 574 576
3 585 576 584
3 585 584 526
3 585 526 529
3 517 574 585
3 517 585 529
3 586 587 588
3 586 588 589
3 587 588 538
3 587 538 537
3 538 588 589
3 538 589 539
3 590 591 587
3 590 587 586
3 591 587 537
3 591 537 540
3 592 593 591
3 592 591 590
3 593 591 540
3 593 540 541
3 594 595 593
3 594 593 592
3 595 593 541
3 595 541 542
3 596 597 595
3 596 595 594
3 597 595 542
3 597 542 543
3 543 597 596
3 543 596 544
3 598 586 589
3 598 589 599
3 539 589 599
3 539 599 545
3 600 596 594
3 600 594 601
3 544 596 600
3 544 600 550
3 602 599 603
3 602 603 604
3 599 603 547
3 599 547 545
3 547 603 604
3 547 604 551
3 605 598 599
3 605 599 602
3 606 600 601
3 606 601 607
3 550 600 606
3 550 606 553
3 608 602 604
3 608 604 609
3 551 604 609
3 551 609 554
3 610 605 602
3 610 602 608
3 611 606 607
3 611 607 612
3 553 606 611
3 553 611 558
3 613 608 609
3 613 609 614
3 613 614 561
3 613 561 566
3 554 609 614
3 554 614 561
3 615 610 608
3 615 608 613
3 616 617 610
3 616 610 615
3 618 611 612
3 618 612 619
3 558 611 618
3 558 618 563
3 620 615 613
3 620 613 621
3 620 621 565
3 620 565 573
3 566 613 621
3 566 621 565
3 622 616 615
3 622 615 620
3 623 619 624
3 623 624 625
3 626 618 619
3 626 619 623
3 626 623 575
3 626 575 569
3 563 618 626
3 563 626 569
3 627 622 620
3 627 620 628
3 627 628 572
3 627 572 581
3 573 620 628
3 573 628 572
3 629 625 622
3 629 622 627
3 629 627 581
3 629 581 583
3 630 623 625
3 630 625 629
3 630 629 583
3 630 583 576
3 575 623 630
3 575 630 576
3 631 632 633
3 631 633 634
3 632 633 586
3 632 586 590
3 586 633 634
3 586 634 598
3 635 636 632
3 635 632 631
3 636 632 590
3 636 590 592
3 637 638 636
3 637 636 635
3 638 636 592
3 638 592 594
3 594 638 637
3 594 637 601
3 639 631 634
3 639 634 640
3 598 634 640
3 598 640 605
3 641 635 631
3 641 631 639
3 642 637 635
3 642 635 641
3 601 637 642
3 601 642 607
3 643 639 640
3 643 640 644
3 643 644 610
3 643 610 617
3 605 640 644
3 605 644 610
3 645 641 639
3 645 639 643
3 646 642 641
3 646 641 645
3 607 642 646
3 607 646 612
3 647 645 643
3 647 643 648
3 617 643 648
3 617 648 616
3 649 646 645
3 649 645 647
3 649 647 624
3 649 624 619
3 612 646 649
3 612 649 619
3 650 647 648
3 650 648 651
3 650 651 622
3 650 622 625
3 616 648 651
3 616 651 622
3 624 647 650
3 624 650 625

