ply
format ascii 1.0
element vertex 752
property float x
property float y
property float z
property uchar red
property uchar green
property uchar blue
property uchar alpha
element face 1500
property list uchar int vertex_indices
end_header
-120 -40 0 0 0 255 255
-120 -60 0 0 0 255 255
-120 -60 -20 0 0 255 255
-120 -40 -20 0 0 255 255
-100 -60 0 0 0 255 255
-100 -60 -20 0 0 255 255
-100 -40 -20 0 0 255 255
-120 -40 20 0 0 255 255
-120 -60 20 0 0 255 255
-100 -60 20 0 0 255 255
-100 -40 20 0 0 255 255
-120 -20 -40 0 0 255 255
-120 -40 -40 0 0 255 255
-120 -40 -60 0 0 255 255
-120 -20 -60 0 0 255 255
-100 -40 -40 0 0 255 255
-100 -40 -60 0 0 255 255
-100 -20 -60 0 0 255 255
-120 -20 -20 0 0 255 255
-120 -20 0 0 0 255 255
-120 -20 20 0 0 255 255
-120 -20 40 0 0 255 255
-120 -40 40 0 0 255 255
-100 -40 40 0 0 255 255
-120 -20 60 0 0 255 255
-120 -40 60 0 0 255 255
-100 -40 60 0 0 255 255
-100 -20 60 0 0 255 255
-120 0 -40 0 0 255 255
-120 0 -60 0 0 255 255
-100 0 -60 0 0 255 255
-120 0 -20 0 0 255 255
-120 0 0 0 0 255 255
-120 0 20 0 0 255 255
-120 0 40 0 0 255 255
-120 0 60 0 0 255 255
-120 0 80 0 0 255 255
-120 -20 80 0 0 255 255
-100 -20 80 0 0 255 255
-120 0 100 0 0 255 255
-120 -20 100 0 0 255 255
-100 -20 100 0 0 255 255
-100 0 100 0 0 255 255
-120 20 -40 0 0 255 255
-120 20 -60 0 0 255 255
-100 20 -60 0 0 255 255
-120 20 -20 0 0 255 255
-120 20 0 0 0 255 255
-120 20 20 0 0 255 255
-120 20 40 0 0 255 255
-120 20 60 0 0 255 255
-120 20 80 0 0 255 255
-100 20 80 0 0 255 255
-100 20 60 0 0 255 255
-120 20 100 0 0 255 255
-100 20 100 0 0 255 255
-120 40 -40 0 0 255 255
-120 40 -60 0 0 255 255
-100 40 -40 0 0 255 255
-100 40 -60 0 0 255 255
-120 40 -20 0 0 255 255
-100 40 -20 0 0 255 255
-120 40 0 0 0 255 255
-120 40 20 0 0 255 255
-120 40 40 0 0 255 255
-100 40 40 0 0 255 255
-100 40 20 0 0 255 255
-120 40 60 0 0 255 255
-100 40 60 0 0 255 255
-120 60 0 0 0 255 255
-120 60 -20 0 0 255 255
-100 60 0 0 0 255 255
-100 60 -20 0 0 255 255
-120 60 20 0 0 255 255
-100 60 20 0 0 255 255
-100 -80 0 0 0 255 255
-100 -100 0 0 0 255 255
-100 -100 -20 0 0 255 255
-100 -80 -20 0 0 255 255
-80 -100 0 0 0 255 255
-80 -100 -20 0 0 255 255
-80 -80 -20 0 0 255 255
-80 -80 0 0 0 255 255
-100 -80 -40 0 0 255 255
-100 -60 -40 0 0 255 255
-80 -80 -40 0 0 255 255
-80 -60 -40 0 0 255 255
-100 -80 20 0 0 255 255
-80 -80 20 0 0 255 255
-100 -60 40 0 0 255 255
-100 -80 40 0 0 255 255
-80 -80 40 0 0 255 255
-100 -60 60 0 0 255 255
-100 -80 60 0 0 255 255
-80 -80 60 0 0 255 255
-80 -60 60 0 0 255 255
-100 -60 -60 0 0 255 255
-100 -60 -80 0 0 255 255
-100 -40 -80 0 0 255 255
-80 -60 -60 0 0 255 255
-80 -60 -80 0 0 255 255
-80 -40 -80 0 0 255 255
-100 -40 80 0 0 255 255
-100 -60 80 0 0 255 255
-80 -60 80 0 0 255 255
-100 -40 100 0 0 255 255
-100 -60 100 0 0 255 255
-80 -60 100 0 0 255 255
-80 -40 100 0 0 255 255
-100 -20 -80 0 0 255 255
-100 -40 -100 0 0 255 255
-100 -20 -100 0 0 255 255
-80 -40 -100 0 0 255 255
-80 -20 -100 0 0 255 255
-80 -20 100 0 0 255 255
-100 0 -80 0 0 255 255
-100 0 -100 0 0 255 255
-80 0 -100 0 0 255 255
-80 0 100 0 0 255 255
-100 20 -80 0 0 255 255
-100 20 -100 0 0 255 255
-80 20 -100 0 0 255 255
-80 20 100 0 0 255 255
-100 40 -80 0 0 255 255
-100 40 -100 0 0 255 255
-80 40 -80 0 0 255 255
-80 40 -100 0 0 255 255
-100 40 80 0 0 255 255
-100 40 100 0 0 255 255
-80 40 100 0 0 255 255
-100 60 -60 0 0 255 255
-100 60 -80 0 0 255 255
-80 60 -60 0 0 255 255
-80 60 -80 0 0 255 255
-100 60 -40 0 0 255 255
-80 60 -40 0 0 255 255
-100 60 40 0 0 255 255
-100 60 60 0 0 255 255
-100 60 80 0 0 255 255
-80 60 80 0 0 255 255
-80 60 60 0 0 255 255
-100 60 100 0 0 255 255
-80 60 100 0 0 255 255
-100 80 -20 0 0 255 255
-100 80 -40 0 0 255 255
-80 80 -20 0 0 255 255
-80 80 -40 0 0 255 255
-100 80 0 0 0 255 255
-100 80 20 0 0 255 255
-80 80 20 0 0 255 255
-80 80 0 0 0 255 255
-100 80 40 0 0 255 255
-80 80 40 0 0 255 255
-100 80 60 0 0 255 255
-80 80 60 0 0 255 255
-100 100 0 0 0 255 255
-100 100 -20 0 0 255 255
-80 100 0 0 0 255 255
-80 100 -20 0 0 255 255
-80 -100 -40 0 0 255 255
-80 -100 -60 0 0 255 255
-80 -80 -60 0 0 255 255
-60 -100 -40 0 0 255 255
-60 -100 -60 0 0 255 255
-60 -80 -60 0 0 255 255
-60 -100 -20 0 0 255 255
-60 -100 0 0 0 255 255
-80 -100 20 0 0 255 255
-60 -100 20 0 0 255 255
-80 -100 40 0 0 255 255
-60 -100 40 0 0 255 255
-80 -100 60 0 0 255 255
-60 -100 60 0 0 255 255
-60 -80 60 0 0 255 255
-80 -80 -80 0 0 255 255
-60 -80 -80 0 0 255 255
-60 -60 -80 0 0 255 255
-80 -80 80 0 0 255 255
-60 -80 80 0 0 255 255
-60 -60 80 0 0 255 255
-80 -60 -100 0 0 255 255
-60 -60 -100 0 0 255 255
-60 -40 -100 0 0 255 255
-60 -60 100 0 0 255 255
-60 -40 100 0 0 255 255
-60 -20 -100 0 0 255 255
-60 -20 100 0 0 255 255
-60 0 -100 0 0 255 255
-60 0 100 0 0 255 255
-60 20 -100 0 0 255 255
-60 20 100 0 0 255 255
-60 40 -100 0 0 255 255
-60 40 100 0 0 255 255
-80 60 -100 0 0 255 255
-60 60 -80 0 0 255 255
-60 60 -100 0 0 255 255
-60 60 100 0 0 255 255
-60 60 80 0 0 255 255
-80 80 -60 0 0 255 255
-80 80 -80 0 0 255 255
-60 80 -60 0 0 255 255
-60 80 -80 0 0 255 255
-80 80 80 0 0 255 255
-60 80 80 0 0 255 255
-60 80 60 0 0 255 255
-80 100 -40 0 0 255 255
-80 100 -60 0 0 255 255
-60 100 -40 0 0 255 255
-60 100 -60 0 0 255 255
-60 100 -20 0 0 255 255
-60 100 0 0 0 255 255
-80 100 20 0 0 255 255
-60 100 20 0 0 255 255
-80 100 40 0 0 255 255
-60 100 40 0 0 255 255
-80 100 60 0 0 255 255
-60 100 60 0 0 255 255
-60 -120 0 0 0 255 255
-60 -120 -20 0 0 255 255
-40 -120 0 0 0 255 255
-40 -120 -20 0 0 255 255
-40 -100 -20 0 0 255 255
-60 -120 20 0 0 255 255
-40 -120 20 0 0 255 255
-40 -100 20 0 0 255 255
-60 -100 -80 0 0 255 255
-40 -100 -60 0 0 255 255
-40 -100 -80 0 0 255 255
-40 -80 -80 0 0 255 255
-40 -100 -40 0 0 255 255
-40 -100 40 0 0 255 255
-40 -100 60 0 0 255 255
-60 -100 80 0 0 255 255
-40 -100 80 0 0 255 255
-40 -80 80 0 0 255 255
-40 -60 -80 0 0 255 255
-40 -60 80 0 0 255 255
-40 -60 -100 0 0 255 255
-40 -40 -100 0 0 255 255
-40 -60 100 0 0 255 255
-40 -40 100 0 0 255 255
-60 -40 -120 0 0 255 255
-60 -20 -120 0 0 255 255
-40 -40 -120 0 0 255 255
-40 -20 -120 0 0 255 255
-60 -20 120 0 0 255 255
-60 -40 120 0 0 255 255
-40 -40 120 0 0 255 255
-40 -20 120 0 0 255 255
-60 0 -120 0 0 255 255
-40 0 -120 0 0 255 255
-60 0 120 0 0 255 255
-40 0 120 0 0 255 255
-60 20 -120 0 0 255 255
-40 20 -120 0 0 255 255
-60 20 120 0 0 255 255
-40 20 120 0 0 255 255
-60 40 -120 0 0 255 255
-40 40 -100 0 0 255 255
-40 40 -120 0 0 255 255
-60 40 120 0 0 255 255
-40 40 120 0 0 255 255
-40 40 100 0 0 255 255
-40 60 -80 0 0 255 255
-40 60 -100 0 0 255 255
-40 60 100 0 0 255 255
-40 60 80 0 0 255 255
-40 80 -80 0 0 255 255
-40 80 80 0 0 255 255
-40 80 60 0 0 255 255
-60 100 -80 0 0 255 255
-40 100 -60 0 0 255 255
-40 100 -80 0 0 255 255
-40 100 -40 0 0 255 255
-40 100 -20 0 0 255 255
-40 100 40 0 0 255 255
-40 100 20 0 0 255 255
-40 100 60 0 0 255 255
-60 120 0 0 0 255 255
-60 120 -20 0 0 255 255
-40 120 0 0 0 255 255
-40 120 -20 0 0 255 255
-60 120 20 0 0 255 255
-40 120 20 0 0 255 255
-40 -120 -40 0 0 255 255
-20 -120 -20 0 0 255 255
-20 -120 -40 0 0 255 255
-20 -100 -40 0 0 255 255
-20 -120 0 0 0 255 255
-20 -120 20 0 0 255 255
-40 -120 40 0 0 255 255
-20 -120 40 0 0 255 255
-20 -100 40 0 0 255 255
-20 -100 -60 0 0 255 255
-20 -100 -80 0 0 255 255
-20 -80 -80 0 0 255 255
-20 -100 60 0 0 255 255
-20 -100 80 0 0 255 255
-20 -80 80 0 0 255 255
-40 -80 -100 0 0 255 255
-20 -80 -100 0 0 255 255
-20 -60 -100 0 0 255 255
-40 -80 100 0 0 255 255
-20 -80 100 0 0 255 255
-20 -60 100 0 0 255 255
-20 -40 -100 0 0 255 255
-20 -40 100 0 0 255 255
-20 -40 -120 0 0 255 255
-20 -20 -120 0 0 255 255
-20 -40 120 0 0 255 255
-20 -20 120 0 0 255 255
-20 0 -120 0 0 255 255
-20 0 120 0 0 255 255
-20 20 -120 0 0 255 255
-20 20 120 0 0 255 255
-20 40 -100 0 0 255 255
-20 40 -120 0 0 255 255
-20 40 120 0 0 255 255
-20 40 100 0 0 255 255
-20 60 -100 0 0 255 255
-20 60 100 0 0 255 255
-40 80 -100 0 0 255 255
-20 80 -80 0 0 255 255
-20 80 -100 0 0 255 255
-40 80 100 0 0 255 255
-20 80 100 0 0 255 255
-20 80 80 0 0 255 255
-20 100 -60 0 0 255 255
-20 100 -80 0 0 255 255
-20 100 -40 0 0 255 255
-20 100 60 0 0 255 255
-20 100 40 0 0 255 255
-40 100 80 0 0 255 255
-20 100 80 0 0 255 255
-40 120 -40 0 0 255 255
-20 120 -20 0 0 255 255
-20 120 -40 0 0 255 255
-20 120 0 0 0 255 255
-20 120 20 0 0 255 255
-40 120 40 0 0 255 255
-20 120 40 0 0 255 255
-20 -120 -60 0 0 255 255
0 -120 -40 0 0 255 255
0 -120 -60 0 0 255 255
0 -100 -60 0 0 255 255
0 -120 -20 0 0 255 255
0 -120 0 0 0 255 255
0 -120 20 0 0 255 255
0 -120 40 0 0 255 255
-20 -120 60 0 0 255 255
0 -120 60 0 0 255 255
0 -100 60 0 0 255 255
0 -100 -80 0 0 255 255
0 -80 -80 0 0 255 255
0 -100 80 0 0 255 255
0 -80 80 0 0 255 255
0 -80 -100 0 0 255 255
0 -60 -100 0 0 255 255
0 -80 100 0 0 255 255
0 -60 100 0 0 255 255
-20 -60 -120 0 0 255 255
0 -60 -120 0 0 255 255
0 -40 -120 0 0 255 255
-20 -60 120 0 0 255 255
0 -60 120 0 0 255 255
0 -40 120 0 0 255 255
0 -20 -120 0 0 255 255
0 -20 120 0 0 255 255
0 0 -120 0 0 255 255
0 0 120 0 0 255 255
0 20 -120 0 0 255 255
0 20 120 0 0 255 255
0 40 -120 0 0 255 255
0 40 120 0 0 255 255
-20 60 -120 0 0 255 255
0 60 -100 0 0 255 255
0 60 -120 0 0 255 255
-20 60 120 0 0 255 255
0 60 120 0 0 255 255
0 60 100 0 0 255 255
0 80 -100 0 0 255 255
0 80 100 0 0 255 255
-20 100 -100 0 0 255 255
0 100 -80 0 0 255 255
0 80 -80 0 0 255 255
0 100 -100 0 0 255 255
0 100 -60 0 0 255 255
0 100 80 0 0 255 255
0 100 60 0 0 255 255
-20 100 100 0 0 255 255
0 100 100 0 0 255 255
0 80 80 0 0 255 255
-20 120 -60 0 0 255 255
0 120 -40 0 0 255 255
0 120 -60 0 0 255 255
0 120 -20 0 0 255 255
0 120 0 0 0 255 255
0 120 20 0 0 255 255
0 120 40 0 0 255 255
-20 120 60 0 0 255 255
0 120 60 0 0 255 255
20 -100 -40 0 0 255 255
20 -120 -40 0 0 255 255
20 -120 -60 0 0 255 255
20 -100 -60 0 0 255 255
20 -120 -20 0 0 255 255
20 -120 0 0 0 255 255
20 -120 20 0 0 255 255
20 -120 40 0 0 255 255
20 -100 60 0 0 255 255
20 -120 60 0 0 255 255
20 -100 40 0 0 255 255
0 -100 -100 0 0 255 255
20 -80 -80 0 0 255 255
20 -100 -80 0 0 255 255
20 -100 -100 0 0 255 255
20 -80 -100 0 0 255 255
20 -100 80 0 0 255 255
0 -100 100 0 0 255 255
20 -80 100 0 0 255 255
20 -100 100 0 0 255 255
20 -80 80 0 0 255 255
20 -60 -100 0 0 255 255
20 -60 100 0 0 255 255
20 -40 -100 0 0 255 255
20 -60 -120 0 0 255 255
20 -40 -120 0 0 255 255
20 -40 120 0 0 255 255
20 -60 120 0 0 255 255
20 -40 100 0 0 255 255
20 -20 -120 0 0 255 255
20 -20 120 0 0 255 255
20 0 -120 0 0 255 255
20 0 120 0 0 255 255
20 20 -120 0 0 255 255
20 20 120 0 0 255 255
20 40 -120 0 0 255 255
20 40 120 0 0 255 255
20 60 -100 0 0 255 255
20 40 -100 0 0 255 255
20 60 -120 0 0 255 255
20 60 120 0 0 255 255
20 40 100 0 0 255 255
20 60 100 0 0 255 255
20 80 -80 0 0 255 255
20 80 -100 0 0 255 255
20 80 100 0 0 255 255
20 80 80 0 0 255 255
20 100 -60 0 0 255 255
20 100 -80 0 0 255 255
20 100 80 0 0 255 255
20 100 60 0 0 255 255
20 120 -40 0 0 255 255
20 100 -40 0 0 255 255
20 120 -60 0 0 255 255
20 120 -20 0 0 255 255
20 120 0 0 0 255 255
20 120 20 0 0 255 255
20 120 40 0 0 255 255
20 120 60 0 0 255 255
20 100 40 0 0 255 255
40 -100 -20 0 0 255 255
40 -120 -20 0 0 255 255
40 -120 -40 0 0 255 255
40 -100 -40 0 0 255 255
40 -120 0 0 0 255 255
40 -120 20 0 0 255 255
40 -100 40 0 0 255 255
40 -120 40 0 0 255 255
40 -100 20 0 0 255 255
40 -100 -60 0 0 255 255
40 -100 -80 0 0 255 255
40 -80 -80 0 0 255 255
40 -100 60 0 0 255 255
40 -100 80 0 0 255 255
40 -80 80 0 0 255 255
40 -60 -80 0 0 255 255
40 -80 -100 0 0 255 255
40 -60 -100 0 0 255 255
40 -60 100 0 0 255 255
40 -80 100 0 0 255 255
40 -60 80 0 0 255 255
40 -40 -100 0 0 255 255
40 -40 100 0 0 255 255
40 -40 -120 0 0 255 255
40 -20 -120 0 0 255 255
40 -40 120 0 0 255 255
40 -20 120 0 0 255 255
40 0 -120 0 0 255 255
40 0 120 0 0 255 255
40 20 -120 0 0 255 255
40 20 120 0 0 255 255
40 40 -100 0 0 255 255
40 40 -120 0 0 255 255
40 40 120 0 0 255 255
40 40 100 0 0 255 255
40 60 -100 0 0 255 255
40 60 100 0 0 255 255
40 80 -80 0 0 255 255
40 80 -100 0 0 255 255
40 80 100 0 0 255 255
40 80 80 0 0 255 255
40 100 -60 0 0 255 255
40 100 -80 0 0 255 255
40 100 -40 0 0 255 255
40 100 60 0 0 255 255
40 100 40 0 0 255 255
40 100 80 0 0 255 255
40 120 -20 0 0 255 255
40 100 -20 0 0 255 255
40 120 -40 0 0 255 255
40 120 0 0 0 255 255
40 120 20 0 0 255 255
40 120 40 0 0 255 255
40 100 20 0 0 255 255
60 -100 0 0 0 255 255
60 -120 0 0 0 255 255
60 -120 -20 0 0 255 255
60 -100 -20 0 0 255 255
60 -100 20 0 0 255 255
60 -120 20 0 0 255 255
60 -80 -60 0 0 255 255
60 -100 -60 0 0 255 255
60 -100 -80 0 0 255 255
60 -80 -80 0 0 255 255
60 -100 -40 0 0 255 255
60 -100 40 0 0 255 255
60 -100 60 0 0 255 255
60 -80 80 0 0 255 255
60 -100 80 0 0 255 255
60 -80 60 0 0 255 255
60 -60 -80 0 0 255 255
60 -60 80 0 0 255 255
60 -60 -100 0 0 255 255
60 -40 -100 0 0 255 255
60 -60 100 0 0 255 255
60 -40 100 0 0 255 255
60 -20 -100 0 0 255 255
60 -40 -120 0 0 255 255
60 -20 -120 0 0 255 255
60 -20 120 0 0 255 255
60 -40 120 0 0 255 255
60 -20 100 0 0 255 255
60 0 -100 0 0 255 255
60 0 -120 0 0 255 255
60 0 120 0 0 255 255
60 0 100 0 0 255 255
60 20 -100 0 0 255 255
60 20 -120 0 0 255 255
60 20 120 0 0 255 255
60 20 100 0 0 255 255
60 40 -100 0 0 255 255
60 40 -120 0 0 255 255
60 40 120 0 0 255 255
60 40 100 0 0 255 255
60 60 -100 0 0 255 255
60 60 100 0 0 255 255
60 80 -80 0 0 255 255
60 60 -80 0 0 255 255
60 80 -100 0 0 255 255
60 80 100 0 0 255 255
60 60 80 0 0 255 255
60 80 80 0 0 255 255
60 100 -60 0 0 255 255
60 80 -60 0 0 255 255
60 100 -80 0 0 255 255
60 100 -40 0 0 255 255
60 100 -20 0 0 255 255
60 100 40 0 0 255 255
60 100 20 0 0 255 255
60 100 60 0 0 255 255
60 100 80 0 0 255 255
60 80 60 0 0 255 255
60 120 0 0 0 255 255
60 100 0 0 0 255 255
60 120 -20 0 0 255 255
60 120 20 0 0 255 255
80 -80 -40 0 0 255 255
80 -100 -40 0 0 255 255
80 -100 -60 0 0 255 255
80 -80 -60 0 0 255 255
80 -80 -20 0 0 255 255
80 -100 -20 0 0 255 255
80 -80 0 0 0 255 255
80 -100 0 0 0 255 255
80 -100 20 0 0 255 255
80 -80 40 0 0 255 255
80 -100 40 0 0 255 255
80 -80 20 0 0 255 255
80 -80 60 0 0 255 255
80 -100 60 0 0 255 255
80 -60 -60 0 0 255 255
80 -80 -80 0 0 255 255
80 -60 -80 0 0 255 255
80 -60 -40 0 0 255 255
80 -60 60 0 0 255 255
80 -60 40 0 0 255 255
80 -60 80 0 0 255 255
80 -80 80 0 0 255 255
80 -40 -80 0 0 255 255
80 -60 -100 0 0 255 255
80 -40 -100 0 0 255 255
80 -40 80 0 0 255 255
80 -40 60 0 0 255 255
80 -40 100 0 0 255 255
80 -60 100 0 0 255 255
80 -20 -100 0 0 255 255
80 -20 100 0 0 255 255
80 0 -100 0 0 255 255
80 0 100 0 0 255 255
80 20 -100 0 0 255 255
80 20 100 0 0 255 255
80 40 -100 0 0 255 255
80 40 100 0 0 255 255
80 60 -80 0 0 255 255
80 40 -80 0 0 255 255
80 60 -100 0 0 255 255
80 60 100 0 0 255 255
80 40 80 0 0 255 255
80 60 80 0 0 255 255
80 80 -60 0 0 255 255
80 60 -60 0 0 255 255
80 80 -80 0 0 255 255
80 80 60 0 0 255 255
80 60 60 0 0 255 255
80 60 40 0 0 255 255
80 80 40 0 0 255 255
80 80 80 0 0 255 255
80 100 -40 0 0 255 255
80 80 -40 0 0 255 255
80 100 -60 0 0 255 255
80 100 -20 0 0 255 255
80 80 -20 0 0 255 255
80 100 0 0 0 255 255
80 80 0 0 0 255 255
80 100 20 0 0 255 255
80 100 40 0 0 255 255
80 80 20 0 0 255 255
80 100 60 0 0 255 255
100 -80 20 0 0 255 255
100 -100 20 0 0 255 255
100 -100 0 0 0 255 255
100 -80 0 0 0 255 255
100 -60 -20 0 0 255 255
100 -80 -20 0 0 255 255
100 -80 -40 0 0 255 255
100 -60 -40 0 0 255 255
100 -60 0 0 0 255 255
100 -60 40 0 0 255 255
100 -80 40 0 0 255 255
100 -60 20 0 0 255 255
100 -40 -60 0 0 255 255
100 -60 -60 0 0 255 255
100 -60 -80 0 0 255 255
100 -40 -80 0 0 255 255
100 -40 -40 0 0 255 255
100 -40 -20 0 0 255 255
100 -40 60 0 0 255 255
100 -60 60 0 0 255 255
100 -40 40 0 0 255 255
100 -20 -80 0 0 255 255
100 -40 -100 0 0 255 255
100 -20 -100 0 0 255 255
100 -20 -60 0 0 255 255
100 -20 60 0 0 255 255
100 -20 40 0 0 255 255
100 -20 80 0 0 255 255
100 -40 80 0 0 255 255
100 -20 100 0 0 255 255
100 -40 100 0 0 255 255
100 0 -80 0 0 255 255
100 0 -100 0 0 255 255
100 0 -60 0 0 255 255
100 0 80 0 0 255 255
100 0 60 0 0 255 255
100 0 100 0 0 255 255
100 20 -80 0 0 255 255
100 20 -100 0 0 255 255
100 20 -60 0 0 255 255
100 20 80 0 0 255 255
100 20 60 0 0 255 255
100 20 100 0 0 255 255
100 40 -80 0 0 255 255
100 40 -100 0 0 255 255
100 40 -60 0 0 255 255
100 40 60 0 0 255 255
100 20 40 0 0 255 255
100 40 40 0 0 255 255
100 40 80 0 0 255 255
100 40 100 0 0 255 255
100 60 -60 0 0 255 255
100 60 -80 0 0 255 255
100 60 -40 0 0 255 255
100 40 -40 0 0 255 255
100 60 -20 0 0 255 255
100 40 -20 0 0 255 255
100 60 40 0 0 255 255
100 40 20 0 0 255 255
100 60 20 0 0 255 255
100 60 60 0 0 255 255
100 60 80 0 0 255 255
100 80 -40 0 0 255 255
100 80 -60 0 0 255 255
100 80 -20 0 0 255 255
100 80 0 0 0 255 255
100 60 0 0 0 255 255
100 80 20 0 0 255 255
100 80 40 0 0 255 255
100 100 20 0 0 255 255
100 100 0 0 0 255 255
120 -60 20 0 0 255 255
120 -80 20 0 0 255 255
120 -80 0 0 0 255 255
120 -60 0 0 0 255 255
120 -40 0 0 0 255 255
120 -60 -20 0 0 255 255
120 -40 -20 0 0 255 255
120 -40 20 0 0 255 255
120 -40 40 0 0 255 255
120 -60 40 0 0 255 255
120 -20 -40 0 0 255 255
120 -40 -40 0 0 255 255
120 -40 -60 0 0 255 255
120 -20 -60 0 0 255 255
120 -20 -20 0 0 255 255
120 -20 0 0 0 255 255
120 -20 20 0 0 255 255
120 -20 40 0 0 255 255
120 0 -40 0 0 255 255
120 0 -60 0 0 255 255
120 0 -20 0 0 255 255
120 0 0 0 0 255 255
120 0 20 0 0 255 255
120 0 40 0 0 255 255
120 0 60 0 0 255 255
120 -20 60 0 0 255 255
120 20 -40 0 0 255 255
120 20 -60 0 0 255 255
120 20 -20 0 0 255 255
120 20 0 0 0 255 255
120 20 20 0 0 255 255
120 20 40 0 0 255 255
120 20 60 0 0 255 255
120 40 -40 0 0 255 255
120 40 -60 0 0 255 255
120 40 -20 0 0 255 255
120 40 0 0 0 255 255
120 40 20 0 0 255 255
120 40 40 0 0 255 255
120 60 0 0 0 255 255
120 60 -20 0 0 255 255
120 60 20 0 0 255 255
3 0 1 2
3 0 2 3
3 4 5 2
3 4 2 1
3 2 5 6
3 2 6 3
3 7 8 1
3 7 1 0
3 9 4 1
3 9 1 8
3 8 9 10
3 8 10 7
3 11 12 13
3 11 13 14
3 15 16 13
3 15 13 12
3 13 16 17
3 13 17 14
3 18 3 12
3 18 12 11
3 6 15 12
3 6 12 3
3 19 0 3
3 19 3 18
3 20 7 0
3 20 0 19
3 21 22 7
3 21 7 20
3 23 10 7
3 23 7 22
3 24 25 22
3 24 22 21
3 26 23 22
3 26 22 25
3 25 26 27
3 25 27 24
3 28 11 14
3 28 14 29
3 14 17 30
3 14 30 29
3 31 18 11
3 31 11 28
3 32 19 18
3 32 18 31
3 33 20 19
3 33 19 32
3 34 21 20
3 34 20 33
3 35 24 21
3 35 21 34
3 36 37 24
3 36 24 35
3 38 27 24
3 38 24 37
3 39 40 37
3 39 37 36
3 41 38 37
3 41 37 40
3 40 41 42
3 40 42 39
3 43 28 29
3 43 29 44
3 29 30 45
3 29 45 44
3 46 31 28
3 46 28 43
3 47 32 31
3 47 31 46
3 48 33 32
3 48 32 47
3 49 34 33
3 49 33 48
3 50 35 34
3 50 34 49
3 51 36 35
3 51 35 50
3 52 53 50
3 52 50 51
3 54 39 36
3 54 36 51
3 55 52 51
3 55 51 54
3 39 42 55
3 39 55 54
3 56 43 44
3 56 44 57
3 58 59 57
3 58 57 56
3 44 45 59
3 44 59 57
3 60 46 43
3 60 43 56
3 61 58 56
3 61 56 60
3 62 47 46
3 62 46 60
3 63 48 47
3 63 47 62
3 64 49 48
3 64 48 63
3 65 66 63
3 65 63 64
3 67 50 49
3 67 49 64
3 68 65 64
3 68 64 67
3 50 53 68
3 50 68 67
3 69 62 60
3 69 60 70
3 71 72 70
3 71 70 69
3 60 61 72
3 60 72 70
3 73 63 62
3 73 62 69
3 74 71 69
3 74 69 73
3 63 66 74
3 63 74 73
3 75 76 77
3 75 77 78
3 79 80 77
3 79 77 76
3 77 80 81
3 77 81 78
3 76 79 82
3 76 82 75
3 5 78 83
3 5 83 84
3 81 85 83
3 81 83 78
3 83 85 86
3 83 86 84
3 4 75 78
3 4 78 5
3 9 87 75
3 9 75 4
3 88 82 75
3 88 75 87
3 89 90 87
3 89 87 9
3 91 88 87
3 91 87 90
3 92 93 90
3 92 90 89
3 94 91 90
3 94 90 93
3 93 94 95
3 93 95 92
3 16 96 97
3 16 97 98
3 99 100 97
3 99 97 96
3 97 100 101
3 97 101 98
3 15 84 96
3 15 96 16
3 86 99 96
3 86 96 84
3 6 5 84
3 6 84 15
3 23 89 9
3 23 9 10
3 26 92 89
3 26 89 23
3 102 103 92
3 102 92 26
3 104 95 92
3 104 92 103
3 105 106 103
3 105 103 102
3 107 104 103
3 107 103 106
3 106 107 108
3 106 108 105
3 109 98 110
3 109 110 111
3 101 112 110
3 101 110 98
3 110 112 113
3 110 113 111
3 17 16 98
3 17 98 109
3 38 102 26
3 38 26 27
3 41 105 102
3 41 102 38
3 105 108 114
3 105 114 41
3 115 109 111
3 115 111 116
3 111 113 117
3 111 117 116
3 30 17 109
3 30 109 115
3 41 114 118
3 41 118 42
3 119 115 116
3 119 116 120
3 116 117 121
3 116 121 120
3 45 30 115
3 45 115 119
3 42 118 122
3 42 122 55
3 123 119 120
3 123 120 124
3 125 126 124
3 125 124 123
3 120 121 126
3 120 126 124
3 59 45 119
3 59 119 123
3 127 52 53
3 127 53 68
3 128 55 52
3 128 52 127
3 55 122 129
3 55 129 128
3 130 59 123
3 130 123 131
3 132 133 131
3 132 131 130
3 123 125 133
3 123 133 131
3 134 58 59
3 134 59 130
3 135 132 130
3 135 130 134
3 72 61 58
3 72 58 134
3 136 65 66
3 136 66 74
3 137 68 65
3 137 65 136
3 138 127 68
3 138 68 137
3 139 140 137
3 139 137 138
3 141 128 127
3 141 127 138
3 142 139 138
3 142 138 141
3 128 129 142
3 128 142 141
3 143 72 134
3 143 134 144
3 145 146 144
3 145 144 143
3 134 135 146
3 134 146 144
3 147 71 72
3 147 72 143
3 148 74 71
3 148 71 147
3 149 150 147
3 149 147 148
3 151 136 74
3 151 74 148
3 152 149 148
3 152 148 151
3 153 137 136
3 153 136 151
3 154 152 151
3 154 151 153
3 137 140 154
3 137 154 153
3 155 147 143
3 155 143 156
3 157 158 156
3 157 156 155
3 143 145 158
3 143 158 156
3 147 150 157
3 147 157 155
3 85 159 160
3 85 160 161
3 162 163 160
3 162 160 159
3 160 163 164
3 160 164 161
3 81 80 159
3 81 159 85
3 165 162 159
3 165 159 80
3 166 165 80
3 166 80 79
3 88 167 79
3 88 79 82
3 168 166 79
3 168 79 167
3 91 169 167
3 91 167 88
3 170 168 167
3 170 167 169
3 94 171 169
3 94 169 91
3 172 170 169
3 172 169 171
3 171 172 173
3 171 173 94
3 99 161 174
3 99 174 100
3 164 175 174
3 164 174 161
3 174 175 176
3 174 176 100
3 86 85 161
3 86 161 99
3 104 177 94
3 104 94 95
3 178 173 94
3 178 94 177
3 177 178 179
3 177 179 104
3 101 100 180
3 101 180 112
3 176 181 180
3 176 180 100
3 180 181 182
3 180 182 112
3 183 179 104
3 183 104 107
3 107 183 184
3 107 184 108
3 112 182 185
3 112 185 113
3 108 184 186
3 108 186 114
3 113 185 187
3 113 187 117
3 114 186 188
3 114 188 118
3 117 187 189
3 117 189 121
3 118 188 190
3 118 190 122
3 121 189 191
3 121 191 126
3 122 190 192
3 122 192 129
3 133 125 126
3 133 126 193
3 194 195 193
3 194 193 133
3 126 191 195
3 126 195 193
3 196 197 139
3 196 139 142
3 129 192 196
3 129 196 142
3 198 132 133
3 198 133 199
3 200 201 199
3 200 199 198
3 133 194 201
3 133 201 199
3 146 135 132
3 146 132 198
3 202 139 140
3 202 140 154
3 203 204 154
3 203 154 202
3 139 197 203
3 139 203 202
3 205 146 198
3 205 198 206
3 207 208 206
3 207 206 205
3 198 200 208
3 198 208 206
3 158 145 146
3 158 146 205
3 209 207 205
3 209 205 158
3 210 209 158
3 210 158 157
3 211 149 150
3 211 150 157
3 212 210 157
3 212 157 211
3 213 152 149
3 213 149 211
3 214 212 211
3 214 211 213
3 215 154 152
3 215 152 213
3 216 214 213
3 216 213 215
3 154 204 216
3 154 216 215
3 166 217 218
3 166 218 165
3 219 220 218
3 219 218 217
3 218 220 221
3 218 221 165
3 168 222 217
3 168 217 166
3 223 219 217
3 223 217 222
3 222 223 224
3 222 224 168
3 164 163 225
3 164 225 175
3 226 227 225
3 226 225 163
3 225 227 228
3 225 228 175
3 229 226 163
3 229 163 162
3 221 229 162
3 221 162 165
3 230 224 168
3 230 168 170
3 231 230 170
3 231 170 172
3 178 232 172
3 178 172 173
3 233 231 172
3 233 172 232
3 232 233 234
3 232 234 178
3 175 228 235
3 175 235 176
3 178 234 236
3 178 236 179
3 235 237 181
3 235 181 176
3 181 237 238
3 181 238 182
3 239 236 179
3 239 179 183
3 183 239 240
3 183 240 184
3 185 182 241
3 185 241 242
3 238 243 241
3 238 241 182
3 241 243 244
3 241 244 242
3 245 246 184
3 245 184 186
3 247 240 184
3 247 184 246
3 246 247 248
3 246 248 245
3 187 185 242
3 187 242 249
3 242 244 250
3 242 250 249
3 251 245 186
3 251 186 188
3 245 248 252
3 245 252 251
3 189 187 249
3 189 249 253
3 249 250 254
3 249 254 253
3 255 251 188
3 255 188 190
3 251 252 256
3 251 256 255
3 191 189 253
3 191 253 257
3 258 259 257
3 258 257 191
3 253 254 259
3 253 259 257
3 260 255 190
3 260 190 192
3 261 262 192
3 261 192 260
3 255 256 261
3 255 261 260
3 263 264 195
3 263 195 194
3 191 258 264
3 191 264 195
3 265 266 197
3 265 197 196
3 192 262 265
3 192 265 196
3 194 263 267
3 194 267 201
3 268 269 204
3 268 204 203
3 197 266 268
3 197 268 203
3 208 200 201
3 208 201 270
3 271 272 270
3 271 270 208
3 201 267 272
3 201 272 270
3 273 271 208
3 273 208 207
3 274 273 207
3 274 207 209
3 275 276 212
3 275 212 214
3 277 275 214
3 277 214 216
3 204 269 277
3 204 277 216
3 278 210 209
3 278 209 279
3 280 281 279
3 280 279 278
3 209 274 281
3 209 281 279
3 282 212 210
3 282 210 278
3 283 280 278
3 283 278 282
3 212 276 283
3 212 283 282
3 221 220 284
3 221 284 229
3 285 286 284
3 285 284 220
3 284 286 287
3 284 287 229
3 288 285 220
3 288 220 219
3 289 288 219
3 289 219 223
3 230 290 223
3 230 223 224
3 291 289 223
3 291 223 290
3 290 291 292
3 290 292 230
3 293 294 227
3 293 227 226
3 227 294 295
3 227 295 228
3 287 293 226
3 287 226 229
3 296 292 230
3 296 230 231
3 297 296 231
3 297 231 233
3 233 297 298
3 233 298 234
3 235 228 299
3 235 299 237
3 295 300 299
3 295 299 228
3 299 300 301
3 299 301 237
3 239 302 234
3 239 234 236
3 303 298 234
3 303 234 302
3 302 303 304
3 302 304 239
3 237 301 305
3 237 305 238
3 239 304 306
3 239 306 240
3 305 307 243
3 305 243 238
3 243 307 308
3 243 308 244
3 309 306 240
3 309 240 247
3 247 309 310
3 247 310 248
3 244 308 311
3 244 311 250
3 248 310 312
3 248 312 252
3 250 311 313
3 250 313 254
3 252 312 314
3 252 314 256
3 315 316 259
3 315 259 258
3 254 313 316
3 254 316 259
3 317 318 262
3 317 262 261
3 256 314 317
3 256 317 261
3 258 315 319
3 258 319 264
3 262 318 320
3 262 320 265
3 267 263 264
3 267 264 321
3 322 323 321
3 322 321 267
3 264 319 323
3 264 323 321
3 324 265 266
3 324 266 268
3 325 326 268
3 325 268 324
3 265 320 325
3 265 325 324
3 327 328 272
3 327 272 271
3 267 322 328
3 267 328 272
3 329 327 271
3 329 271 273
3 330 331 275
3 330 275 277
3 332 268 269
3 332 269 277
3 333 330 277
3 333 277 332
3 268 326 333
3 268 333 332
3 281 274 273
3 281 273 334
3 335 336 334
3 335 334 281
3 273 329 336
3 273 336 334
3 337 335 281
3 337 281 280
3 338 337 280
3 338 280 283
3 339 275 276
3 339 276 283
3 340 338 283
3 340 283 339
3 275 331 340
3 275 340 339
3 287 286 341
3 287 341 293
3 342 343 341
3 342 341 286
3 341 343 344
3 341 344 293
3 345 342 286
3 345 286 285
3 346 345 285
3 346 285 288
3 347 346 288
3 347 288 289
3 348 347 289
3 348 289 291
3 296 349 291
3 296 291 292
3 350 348 291
3 350 291 349
3 349 350 351
3 349 351 296
3 344 352 294
3 344 294 293
3 294 352 353
3 294 353 295
3 354 351 296
3 354 296 297
3 297 354 355
3 297 355 298
3 353 356 300
3 353 300 295
3 300 356 357
3 300 357 301
3 358 355 298
3 358 298 303
3 303 358 359
3 303 359 304
3 305 301 360
3 305 360 307
3 357 361 360
3 357 360 301
3 360 361 362
3 360 362 307
3 309 363 304
3 309 304 306
3 364 359 304
3 364 304 363
3 363 364 365
3 363 365 309
3 307 362 366
3 307 366 308
3 309 365 367
3 309 367 310
3 308 366 368
3 308 368 311
3 310 367 369
3 310 369 312
3 311 368 370
3 311 370 313
3 312 369 371
3 312 371 314
3 313 370 372
3 313 372 316
3 314 371 373
3 314 373 317
3 319 315 316
3 319 316 374
3 375 376 374
3 375 374 319
3 316 372 376
3 316 376 374
3 377 317 318
3 377 318 320
3 378 379 320
3 378 320 377
3 317 373 378
3 317 378 377
3 319 375 380
3 319 380 323
3 320 379 381
3 320 381 325
3 328 322 323
3 328 323 382
3 383 384 380
3 383 380 385
3 383 385 382
3 383 382 328
3 323 380 385
3 323 385 382
3 386 383 328
3 386 328 327
3 387 388 330
3 387 330 333
3 389 325 326
3 389 326 333
3 390 381 391
3 390 391 387
3 390 387 333
3 390 333 389
3 325 381 390
3 325 390 389
3 336 329 327
3 336 327 392
3 393 394 392
3 393 392 336
3 327 386 394
3 327 394 392
3 395 393 336
3 395 336 335
3 396 395 335
3 396 335 337
3 397 396 337
3 397 337 338
3 398 397 338
3 398 338 340
3 399 330 331
3 399 331 340
3 400 398 340
3 400 340 399
3 330 388 400
3 330 400 399
3 401 402 403
3 401 403 404
3 402 403 343
3 402 343 342
3 343 403 404
3 343 404 344
3 405 402 342
3 405 342 345
3 406 405 345
3 406 345 346
3 407 406 346
3 407 346 347
3 408 407 347
3 408 347 348
3 409 410 408
3 409 408 411
3 410 408 348
3 410 348 350
3 350 410 409
3 350 409 351
3 353 352 412
3 353 412 356
3 413 414 415
3 413 415 416
3 414 415 412
3 414 412 352
3 412 415 416
3 412 416 356
3 404 414 352
3 404 352 344
3 417 409 351
3 417 351 354
3 358 418 354
3 358 354 355
3 419 420 417
3 419 417 421
3 420 417 354
3 420 354 418
3 418 420 419
3 418 419 358
3 356 416 422
3 356 422 357
3 358 419 423
3 358 423 359
3 424 422 425
3 424 425 426
3 422 425 361
3 422 361 357
3 361 425 426
3 361 426 362
3 427 428 423
3 427 423 429
3 428 423 359
3 428 359 364
3 364 428 427
3 364 427 365
3 362 426 430
3 362 430 366
3 365 427 431
3 365 431 367
3 366 430 432
3 366 432 368
3 367 431 433
3 367 433 369
3 368 432 434
3 368 434 370
3 369 433 435
3 369 435 371
3 370 434 436
3 370 436 372
3 371 435 437
3 371 437 373
3 438 439 436
3 438 436 440
3 438 440 376
3 438 376 375
3 372 436 440
3 372 440 376
3 441 437 442
3 441 442 443
3 441 443 379
3 441 379 378
3 373 437 441
3 373 441 378
3 444 445 380
3 444 380 384
3 375 438 445
3 375 445 380
3 446 447 391
3 446 391 381
3 379 443 446
3 379 446 381
3 448 449 383
3 448 383 386
3 384 444 449
3 384 449 383
3 450 451 388
3 450 388 387
3 391 447 450
3 391 450 387
3 452 453 448
3 452 448 454
3 452 454 394
3 452 394 393
3 386 448 454
3 386 454 394
3 455 452 393
3 455 393 395
3 456 455 395
3 456 395 396
3 457 456 396
3 457 396 397
3 458 457 397
3 458 397 398
3 459 451 460
3 459 460 458
3 459 458 398
3 459 398 400
3 388 451 459
3 388 459 400
3 461 462 463
3 461 463 464
3 462 463 402
3 462 402 405
3 402 463 464
3 402 464 401
3 465 462 405
3 465 405 406
3 466 465 406
3 466 406 407
3 467 468 466
3 467 466 469
3 468 466 407
3 468 407 408
3 408 468 467
3 408 467 411
3 470 471 414
3 470 414 404
3 414 471 472
3 414 472 413
3 464 470 404
3 464 404 401
3 473 467 411
3 473 411 409
3 474 473 409
3 474 409 417
3 417 474 475
3 417 475 421
3 476 472 477
3 476 477 478
3 472 477 416
3 472 416 413
3 416 477 478
3 416 478 422
3 479 480 475
3 479 475 481
3 480 475 421
3 480 421 419
3 419 480 479
3 419 479 423
3 422 478 482
3 422 482 424
3 423 479 483
3 423 483 429
3 482 484 426
3 482 426 424
3 426 484 485
3 426 485 430
3 486 483 429
3 486 429 427
3 427 486 487
3 427 487 431
3 430 485 488
3 430 488 432
3 431 487 489
3 431 489 433
3 432 488 490
3 432 490 434
3 433 489 491
3 433 491 435
3 492 493 436
3 492 436 439
3 434 490 493
3 434 493 436
3 494 495 442
3 494 442 437
3 435 491 494
3 435 494 437
3 439 492 496
3 439 496 438
3 442 495 497
3 442 497 443
3 498 499 445
3 498 445 444
3 438 496 499
3 438 499 445
3 500 501 447
3 500 447 446
3 443 497 500
3 443 500 446
3 502 503 449
3 502 449 448
3 444 498 503
3 444 503 449
3 504 502 448
3 504 448 453
3 505 506 460
3 505 460 451
3 507 505 451
3 507 451 450
3 447 501 507
3 447 507 450
3 508 509 504
3 508 504 510
3 508 510 452
3 508 452 455
3 453 504 510
3 453 510 452
3 511 508 455
3 511 455 456
3 512 511 456
3 512 456 457
3 513 506 514
3 513 514 512
3 513 512 457
3 513 457 458
3 460 506 513
3 460 513 458
3 515 516 517
3 515 517 518
3 516 517 462
3 516 462 465
3 462 517 518
3 462 518 461
3 519 520 516
3 519 516 515
3 520 516 465
3 520 465 466
3 466 520 519
3 466 519 469
3 521 522 523
3 521 523 524
3 522 523 471
3 522 471 470
3 471 523 524
3 471 524 472
3 525 522 470
3 525 470 464
3 518 525 464
3 518 464 461
3 526 519 469
3 526 469 467
3 527 526 467
3 527 467 473
3 528 529 527
3 528 527 530
3 529 527 473
3 529 473 474
3 474 529 528
3 474 528 475
3 472 524 531
3 472 531 476
3 475 528 532
3 475 532 481
3 531 533 478
3 531 478 476
3 478 533 534
3 478 534 482
3 535 532 481
3 535 481 479
3 479 535 536
3 479 536 483
3 537 534 538
3 537 538 539
3 534 538 484
3 534 484 482
3 484 538 539
3 484 539 485
3 540 541 536
3 540 536 542
3 541 536 483
3 541 483 486
3 486 541 540
3 486 540 487
3 543 537 539
3 543 539 544
3 485 539 544
3 485 544 488
3 545 540 542
3 545 542 546
3 487 540 545
3 487 545 489
3 547 543 544
3 547 544 548
3 488 544 548
3 488 548 490
3 549 545 546
3 549 546 550
3 489 545 549
3 489 549 491
3 551 547 548
3 551 548 552
3 551 552 493
3 551 493 492
3 490 548 552
3 490 552 493
3 553 549 550
3 553 550 554
3 553 554 495
3 553 495 494
3 491 549 553
3 491 553 494
3 492 551 555
3 492 555 496
3 495 554 556
3 495 556 497
3 557 558 555
3 557 555 559
3 557 559 499
3 557 499 498
3 496 555 559
3 496 559 499
3 560 556 561
3 560 561 562
3 560 562 501
3 560 501 500
3 497 556 560
3 497 560 500
3 563 564 557
3 563 557 565
3 563 565 503
3 563 503 502
3 498 557 565
3 498 565 503
3 566 563 502
3 566 502 504
3 567 566 504
3 567 504 509
3 568 569 514
3 568 514 506
3 570 568 506
3 570 506 505
3 571 562 572
3 571 572 570
3 571 570 505
3 571 505 507
3 501 562 571
3 501 571 507
3 573 574 567
3 573 567 575
3 573 575 508
3 573 508 511
3 509 567 575
3 509 575 508
3 576 569 574
3 576 574 573
3 576 573 511
3 576 511 512
3 514 569 576
3 514 576 512
3 577 578 579
3 577 579 580
3 578 579 522
3 578 522 525
3 522 579 580
3 522 580 521
3 581 582 578
3 581 578 577
3 582 578 525
3 582 525 518
3 583 584 582
3 583 582 581
3 584 582 518
3 584 518 515
3 585 584 515
3 585 515 519
3 586 587 585
3 586 585 588
3 587 585 519
3 587 519 526
3 589 590 587
3 589 587 586
3 590 587 526
3 590 526 527
3 527 590 589
3 527 589 530
3 591 580 592
3 591 592 593
3 580 592 524
3 580 524 521
3 524 592 593
3 524 593 531
3 594 577 580
3 594 580 591
3 595 589 586
3 595 586 596
3 597 598 589
3 597 589 595
3 598 589 530
3 598 530 528
3 528 598 597
3 528 597 532
3 599 593 600
3 599 600 601
3 593 600 533
3 593 533 531
3 533 600 601
3 533 601 534
3 602 597 595
3 602 595 603
3 604 605 597
3 604 597 602
3 605 597 532
3 605 532 535
3 535 605 604
3 535 604 536
3 534 601 606
3 534 606 537
3 536 604 607
3 536 607 542
3 537 606 608
3 537 608 543
3 542 607 609
3 542 609 546
3 543 608 610
3 543 610 547
3 546 609 611
3 546 611 550
3 547 610 612
3 547 612 551
3 550 611 613
3 550 613 554
3 614 615 612
3 614 612 616
3 614 616 555
3 614 555 558
3 551 612 616
3 551 616 555
3 617 613 618
3 617 618 619
3 617 619 561
3 617 561 556
3 554 613 617
3 554 617 556
3 620 621 614
3 620 614 622
3 620 622 557
3 620 557 564
3 558 614 622
3 558 622 557
3 623 624 625
3 623 625 626
3 627 619 624
3 627 624 623
3 627 623 572
3 627 572 562
3 561 619 627
3 561 627 562
3 628 629 620
3 628 620 630
3 628 630 563
3 628 563 566
3 564 620 630
3 564 630 563
3 631 632 629
3 631 629 628
3 631 628 566
3 631 566 567
3 633 634 632
3 633 632 631
3 633 631 567
3 633 567 574
3 635 633 574
3 635 574 569
3 636 626 637
3 636 637 635
3 636 635 569
3 636 569 568
3 638 623 626
3 638 626 636
3 638 636 568
3 638 568 570
3 572 623 638
3 572 638 570
3 639 640 641
3 639 641 642
3 640 641 584
3 640 584 585
3 584 641 642
3 584 642 583
3 585 640 639
3 585 639 588
3 643 644 645
3 643 645 646
3 644 645 577
3 644 577 581
3 577 645 646
3 577 646 594
3 647 642 644
3 647 644 643
3 642 644 581
3 642 581 583
3 648 649 639
3 648 639 650
3 649 639 588
3 649 588 586
3 586 649 648
3 586 648 596
3 651 652 653
3 651 653 654
3 652 653 593
3 652 593 591
3 593 653 654
3 593 654 599
3 655 646 652
3 655 652 651
3 646 652 591
3 646 591 594
3 656 643 646
3 656 646 655
3 657 658 648
3 657 648 659
3 658 648 596
3 658 596 595
3 595 658 657
3 595 657 603
3 660 654 661
3 660 661 662
3 654 661 601
3 654 601 599
3 601 661 662
3 601 662 606
3 663 651 654
3 663 654 660
3 664 657 659
3 664 659 665
3 666 667 657
3 666 657 664
3 667 657 603
3 667 603 602
3 668 669 667
3 668 667 666
3 669 667 602
3 669 602 604
3 604 669 668
3 604 668 607
3 670 660 662
3 670 662 671
3 606 662 671
3 606 671 608
3 672 663 660
3 672 660 670
3 673 666 664
3 673 664 674
3 675 668 666
3 675 666 673
3 607 668 675
3 607 675 609
3 676 670 671
3 676 671 677
3 608 671 677
3 608 677 610
3 678 672 670
3 678 670 676
3 679 673 674
3 679 674 680
3 681 675 673
3 681 673 679
3 609 675 681
3 609 681 611
3 682 676 677
3 682 677 683
3 682 683 612
3 682 612 615
3 610 677 683
3 610 683 612
3 684 678 676
3 684 676 682
3 685 680 686
3 685 686 687
3 688 679 680
3 688 680 685
3 689 681 679
3 689 679 688
3 689 688 618
3 689 618 613
3 611 681 689
3 611 689 613
3 690 684 682
3 690 682 691
3 690 691 614
3 690 614 621
3 615 682 691
3 615 691 614
3 692 693 684
3 692 684 690
3 694 695 693
3 694 693 692
3 696 687 697
3 696 697 698
3 699 685 687
3 699 687 696
3 699 696 625
3 699 625 624
3 700 688 685
3 700 685 699
3 700 699 624
3 700 624 619
3 618 688 700
3 618 700 619
3 701 692 690
3 701 690 702
3 701 702 620
3 701 620 629
3 621 690 702
3 621 702 620
3 703 694 692
3 703 692 701
3 703 701 629
3 703 629 632
3 704 705 694
3 704 694 703
3 704 703 632
3 704 632 634
3 706 698 705
3 706 705 704
3 707 696 698
3 707 698 706
3 707 706 637
3 707 637 626
3 625 696 707
3 625 707 626
3 708 706 704
3 708 704 709
3 708 709 633
3 708 633 635
3 634 704 709
3 634 709 633
3 637 706 708
3 637 708 635
3 710 711 712
3 710 712 713
3 711 712 642
3 711 642 639
3 642 712 713
3 642 713 647
3 639 711 710
3 639 710 650
3 714 713 715
3 714 715 716
3 713 715 643
3 713 643 647
3 643 715 716
3 643 716 656
3 717 710 713
3 717 713 714
3 718 719 710
3 718 710 717
3 719 710 650
3 719 650 648
3 648 719 718
3 648 718 659
3 720 721 722
3 720 722 723
3 721 722 651
3 721 651 655
3 651 722 723
3 651 723 663
3 724 716 721
3 724 721 720
3 716 721 655
3 716 655 656
3 725 714 716
3 725 716 724
3 726 717 714
3 726 714 725
3 727 718 717
3 727 717 726
3 659 718 727
3 659 727 665
3 728 720 723
3 728 723 729
3 663 723 729
3 663 729 672
3 730 724 720
3 730 720 728
3 731 725 724
3 731 724 730
3 732 726 725
3 732 725 731
3 733 727 726
3 733 726 732
3 734 735 727
3 734 727 733
3 735 727 665
3 735 665 664
3 664 735 734
3 664 734 674
3 736 728 729
3 736 729 737
3 672 729 737
3 672 737 678
3 738 730 728
3 738 728 736
3 739 731 730
3 739 730 738
3 740 732 731
3 740 731 739
3 741 733 732
3 741 732 740
3 742 734 733
3 742 733 741
3 742 741 686
3 742 686 680
3 674 734 742
3 674 742 680
3 743 736 737
3 743 737 744
3 743 744 684
3 743 684 693
3 678 737 744
3 678 744 684
3 745 738 736
3 745 736 743
3 745 743 693
3 745 693 695
3 746 739 738
3 746 738 745
3 747 740 739
3 747 739 746
3 748 741 740
3 748 740 747
3 748 747 697
3 748 697 687
3 686 741 748
3 686 748 687
3 749 746 745
3 749 745 750
3 749 750 694
3 749 694 705
3 695 745 750
3 695 750 694
3 751 747 746
3 751 746 749
3 751 749 705
3 751 705 698
3 697 747 751
3 697 751 698

