ply
format ascii 1.0
element vertex 244
property float x
property float y
property float z
property uchar red
property uchar green
property uchar blue
property uchar alpha
element face 484
property list uchar int vertex_indices
end_header
-56 -14 0 0 0 255 255
-56 -28 0 0 0 255 255
-56 -28 -14 0 0 255 255
-56 -14 -14 0 0 255 255
-42 -28 0 0 0 255 255
-42 -28 -14 0 0 255 255
-42 -14 -14 0 0 255 255
-42 -14 0 0 0 255 255
-56 0 0 0 0 255 255
-56 0 -14 0 0 255 255
-42 0 -14 0 0 255 255
-56 0 14 0 0 255 255
-56 -14 14 0 0 255 255
-42 -14 14 0 0 255 255
-42 0 14 0 0 255 255
-56 14 0 0 0 255 255
-56 14 -14 0 0 255 255
-42 14 -14 0 0 255 255
-56 14 14 0 0 255 255
-42 14 14 0 0 255 255
-42 14 0 0 0 255 255
-56 28 0 0 0 255 255
-56 28 -14 0 0 255 255
-42 28 0 0 0 255 255
-42 28 -14 0 0 255 255
-42 -42 0 0 0 255 255
-42 -42 -14 0 0 255 255
-28 -42 0 0 0 255 255
-28 -42 -14 0 0 255 255
-28 -28 -14 0 0 255 255
-42 -28 14 0 0 255 255
-42 -42 14 0 0 255 255
-28 -42 14 0 0 255 255
-28 -28 14 0 0 255 255
-42 -28 -28 0 0 255 255
-42 -14 -28 0 0 255 255
-28 -28 -28 0 0 255 255
-28 -14 -28 0 0 255 255
-42 -14 28 0 0 255 255
-42 -28 28 0 0 255 255
-28 -28 28 0 0 255 255
-28 -14 28 0 0 255 255
-42 0 -28 0 0 255 255
-28 0 -28 0 0 255 255
-42 0 28 0 0 255 255
-28 0 28 0 0 255 255
-42 14 -28 0 0 255 255
-28 14 -28 0 0 255 255
-42 14 28 0 0 255 255
-28 14 28 0 0 255 255
-42 28 -28 0 0 255 255
-28 28 -14 0 0 255 255
-28 28 -28 0 0 255 255
-42 28 14 0 0 255 255
-42 28 28 0 0 255 255
-28 28 28 0 0 255 255
-28 28 14 0 0 255 255
-42 42 0 0 0 255 255
-42 42 -14 0 0 255 255
-28 42 0 0 0 255 255
-28 42 -14 0 0 255 255
-42 42 14 0 0 255 255
-28 42 14 0 0 255 255
-28 -56 0 0 0 255 255
-28 -56 -14 0 0 255 255
-14 -56 0 0 0 255 255
-14 -56 -14 0 0 255 255
-14 -42 -14 0 0 255 255
-28 -56 14 0 0 255 255
-14 -56 14 0 0 255 255
-14 -42 14 0 0 255 255
-28 -42 -28 0 0 255 255
-14 -42 -28 0 0 255 255
-14 -28 -28 0 0 255 255
-28 -42 28 0 0 255 255
-14 -42 28 0 0 255 255
-14 -28 28 0 0 255 255
-14 -14 -28 0 0 255 255
-14 -14 28 0 0 255 255
-28 -14 -42 0 0 255 255
-28 0 -42 0 0 255 255
-14 -14 -42 0 0 255 255
-14 0 -42 0 0 255 255
-28 0 42 0 0 255 255
-28 -14 42 0 0 255 255
-14 -14 42 0 0 255 255
-14 0 42 0 0 255 255
-28 14 -42 0 0 255 255
-14 14 -28 0 0 255 255
-14 14 -42 0 0 255 255
-28 14 42 0 0 255 255
-14 14 42 0 0 255 255
-14 14 28 0 0 255 255
-14 28 -28 0 0 255 255
-14 28 28 0 0 255 255
-28 42 -28 0 0 255 255
-14 42 -14 0 0 255 255
-14 42 -28 0 0 255 255
-14 42 0 0 0 255 255
-14 42 14 0 0 255 255
-28 42 28 0 0 255 255
-14 42 28 0 0 255 255
0 -56 0 0 0 255 255
0 -56 -14 0 0 255 255
0 -42 -14 0 0 255 255
0 -56 14 0 0 255 255
0 -42 14 0 0 255 255
0 -42 -28 0 0 255 255
0 -28 -28 0 0 255 255
0 -42 28 0 0 255 255
0 -28 28 0 0 255 255
-14 -28 -42 0 0 255 255
0 -28 -42 0 0 255 255
0 -14 -42 0 0 255 255
-14 -28 42 0 0 255 255
0 -28 42 0 0 255 255
0 -14 42 0 0 255 255
0 0 -42 0 0 255 255
0 0 42 0 0 255 255
0 14 -42 0 0 255 255
0 14 42 0 0 255 255
-14 28 -42 0 0 255 255
0 28 -28 0 0 255 255
0 28 -42 0 0 255 255
-14 28 42 0 0 255 255
0 28 42 0 0 255 255
0 28 28 0 0 255 255
0 42 -14 0 0 255 255
0 42 -28 0 0 255 255
0 42 28 0 0 255 255
0 42 14 0 0 255 255
-14 56 0 0 0 255 255
-14 56 -14 0 0 255 255
0 56 0 0 0 255 255
0 56 -14 0 0 255 255
-14 56 14 0 0 255 255
0 56 14 0 0 255 255
14 -42 0 0 0 255 255
14 -56 0 0 0 255 255
14 -56 -14 0 0 255 255
14 -42 -14 0 0 255 255
14 -42 14 0 0 255 255
14 -56 14 0 0 255 255
14 -42 -28 0 0 255 255
14 -28 -28 0 0 255 255
14 -42 28 0 0 255 255
14 -28 28 0 0 255 255
14 -14 -28 0 0 255 255
14 -28 -42 0 0 255 255
14 -14 -42 0 0 255 255
14 -14 42 0 0 255 255
14 -28 42 0 0 255 255
14 -14 28 0 0 255 255
14 0 -42 0 0 255 255
14 0 42 0 0 255 255
14 14 -42 0 0 255 255
14 14 42 0 0 255 255
14 28 -28 0 0 255 255
14 14 -28 0 0 255 255
14 28 -42 0 0 255 255
14 28 42 0 0 255 255
14 14 28 0 0 255 255
14 28 28 0 0 255 255
14 42 -14 0 0 255 255
14 42 -28 0 0 255 255
14 42 28 0 0 255 255
14 42 14 0 0 255 255
14 56 0 0 0 255 255
14 56 -14 0 0 255 255
14 56 14 0 0 255 255
14 42 0 0 0 255 255
28 -28 -14 0 0 255 255
28 -42 -14 0 0 255 255
28 -42 -28 0 0 255 255
28 -28 -28 0 0 255 255
28 -42 0 0 0 255 255
28 -42 14 0 0 255 255
28 -28 28 0 0 255 255
28 -42 28 0 0 255 255
28 -28 14 0 0 255 255
28 -14 -28 0 0 255 255
28 -14 28 0 0 255 255
28 0 -28 0 0 255 255
28 -14 -42 0 0 255 255
28 0 -42 0 0 255 255
28 0 42 0 0 255 255
28 -14 42 0 0 255 255
28 0 28 0 0 255 255
28 14 -28 0 0 255 255
28 14 -42 0 0 255 255
28 14 42 0 0 255 255
28 14 28 0 0 255 255
28 28 -28 0 0 255 255
28 28 28 0 0 255 255
28 42 -14 0 0 255 255
28 28 -14 0 0 255 255
28 42 -28 0 0 255 255
28 42 14 0 0 255 255
28 28 14 0 0 255 255
28 28 0 0 0 255 255
28 42 0 0 0 255 255
28 42 28 0 0 255 255
28 56 0 0 0 255 255
28 56 -14 0 0 255 255
42 -28 0 0 0 255 255
42 -42 0 0 0 255 255
42 -42 -14 0 0 255 255
42 -28 -14 0 0 255 255
42 -28 14 0 0 255 255
42 -42 14 0 0 255 255
42 -14 -14 0 0 255 255
42 -28 -28 0 0 255 255
42 -14 -28 0 0 255 255
42 -14 14 0 0 255 255
42 -14 0 0 0 255 255
42 -14 28 0 0 255 255
42 -28 28 0 0 255 255
42 0 -14 0 0 255 255
42 0 -28 0 0 255 255
42 0 28 0 0 255 255
42 0 14 0 0 255 255
42 14 -14 0 0 255 255
42 14 -28 0 0 255 255
42 14 28 0 0 255 255
42 14 14 0 0 255 255
42 28 -14 0 0 255 255
42 28 -28 0 0 255 255
42 28 0 0 0 255 255
42 14 0 0 0 255 255
42 28 14 0 0 255 255
42 28 28 0 0 255 255
42 42 0 0 0 255 255
42 42 -14 0 0 255 255
56 -14 0 0 0 255 255
56 -28 0 0 0 255 255
56 -28 -14 0 0 255 255
56 -14 -14 0 0 255 255
56 0 0 0 0 255 255
56 0 -14 0 0 255 255
56 0 14 0 0 255 255
56 -14 14 0 0 255 255
56 14 0 0 0 255 255
56 14 -14 0 0 255 255
56 14 14 0 0 255 255
3 0 1 2
3 0 2 3
3 4 5 2
3 4 2 1
3 2 5 6
3 2 6 3
3 1 4 7
3 1 7 0
3 8 0 3
3 8 3 9
3 3 6 10
3 3 10 9
3 11 12 0
3 11 0 8
3 13 7 0
3 13 0 12
3 12 13 14
3 12 14 11
3 15 8 9
3 15 9 16
3 9 10 17
3 9 17 16
3 18 11 8
3 18 8 15
3 19 20 15
3 19 15 18
3 11 14 19
3 11 19 18
3 21 15 16
3 21 16 22
3 23 24 22
3 23 22 21
3 16 17 24
3 16 24 22
3 15 20 23
3 15 23 21
3 4 25 26
3 4 26 5
3 27 28 26
3 27 26 25
3 26 28 29
3 26 29 5
3 30 31 25
3 30 25 4
3 32 27 25
3 32 25 31
3 31 32 33
3 31 33 30
3 6 5 34
3 6 34 35
3 29 36 34
3 29 34 5
3 34 36 37
3 34 37 35
3 13 30 4
3 13 4 7
3 38 39 30
3 38 30 13
3 40 33 30
3 40 30 39
3 39 40 41
3 39 41 38
3 10 6 35
3 10 35 42
3 35 37 43
3 35 43 42
3 44 38 13
3 44 13 14
3 38 41 45
3 38 45 44
3 17 10 42
3 17 42 46
3 42 43 47
3 42 47 46
3 48 44 14
3 48 14 19
3 44 45 49
3 44 49 48
3 24 17 46
3 24 46 50
3 51 52 50
3 51 50 24
3 46 47 52
3 46 52 50
3 53 19 20
3 53 20 23
3 54 48 19
3 54 19 53
3 55 56 53
3 55 53 54
3 48 49 55
3 48 55 54
3 57 23 24
3 57 24 58
3 59 60 58
3 59 58 57
3 24 51 60
3 24 60 58
3 61 53 23
3 61 23 57
3 62 59 57
3 62 57 61
3 53 56 62
3 53 62 61
3 27 63 64
3 27 64 28
3 65 66 64
3 65 64 63
3 64 66 67
3 64 67 28
3 32 68 63
3 32 63 27
3 69 65 63
3 69 63 68
3 68 69 70
3 68 70 32
3 29 28 71
3 29 71 36
3 67 72 71
3 67 71 28
3 71 72 73
3 71 73 36
3 40 74 32
3 40 32 33
3 75 70 32
3 75 32 74
3 74 75 76
3 74 76 40
3 36 73 77
3 36 77 37
3 40 76 78
3 40 78 41
3 43 37 79
3 43 79 80
3 77 81 79
3 77 79 37
3 79 81 82
3 79 82 80
3 83 84 41
3 83 41 45
3 85 78 41
3 85 41 84
3 84 85 86
3 84 86 83
3 47 43 80
3 47 80 87
3 88 89 87
3 88 87 47
3 80 82 89
3 80 89 87
3 90 83 45
3 90 45 49
3 91 92 49
3 91 49 90
3 83 86 91
3 83 91 90
3 47 88 93
3 47 93 52
3 49 92 94
3 49 94 55
3 60 51 52
3 60 52 95
3 96 97 95
3 96 95 60
3 52 93 97
3 52 97 95
3 98 96 60
3 98 60 59
3 99 98 59
3 99 59 62
3 100 55 56
3 100 56 62
3 101 99 62
3 101 62 100
3 55 94 101
3 55 101 100
3 102 103 66
3 102 66 65
3 66 103 104
3 66 104 67
3 105 102 65
3 105 65 69
3 69 105 106
3 69 106 70
3 104 107 72
3 104 72 67
3 72 107 108
3 72 108 73
3 109 106 70
3 109 70 75
3 75 109 110
3 75 110 76
3 77 73 111
3 77 111 81
3 108 112 111
3 108 111 73
3 111 112 113
3 111 113 81
3 85 114 76
3 85 76 78
3 115 110 76
3 115 76 114
3 114 115 116
3 114 116 85
3 81 113 117
3 81 117 82
3 85 116 118
3 85 118 86
3 82 117 119
3 82 119 89
3 86 118 120
3 86 120 91
3 93 88 89
3 93 89 121
3 122 123 121
3 122 121 93
3 89 119 123
3 89 123 121
3 124 91 92
3 124 92 94
3 125 126 94
3 125 94 124
3 91 120 125
3 91 125 124
3 127 128 97
3 127 97 96
3 93 122 128
3 93 128 97
3 129 130 99
3 129 99 101
3 94 126 129
3 94 129 101
3 131 98 96
3 131 96 132
3 133 134 132
3 133 132 131
3 96 127 134
3 96 134 132
3 135 99 98
3 135 98 131
3 136 133 131
3 136 131 135
3 99 130 136
3 99 136 135
3 137 138 139
3 137 139 140
3 138 139 103
3 138 103 102
3 103 139 140
3 103 140 104
3 141 142 138
3 141 138 137
3 142 138 102
3 142 102 105
3 105 142 141
3 105 141 106
3 140 143 107
3 140 107 104
3 107 143 144
3 107 144 108
3 145 141 106
3 145 106 109
3 109 145 146
3 109 146 110
3 147 144 148
3 147 148 149
3 144 148 112
3 144 112 108
3 112 148 149
3 112 149 113
3 150 151 146
3 150 146 152
3 151 146 110
3 151 110 115
3 115 151 150
3 115 150 116
3 113 149 153
3 113 153 117
3 116 150 154
3 116 154 118
3 117 153 155
3 117 155 119
3 118 154 156
3 118 156 120
3 157 158 155
3 157 155 159
3 157 159 123
3 157 123 122
3 119 155 159
3 119 159 123
3 160 156 161
3 160 161 162
3 160 162 126
3 160 126 125
3 120 156 160
3 120 160 125
3 163 164 128
3 163 128 127
3 122 157 164
3 122 164 128
3 165 166 130
3 165 130 129
3 126 162 165
3 126 165 129
3 167 168 134
3 167 134 133
3 127 163 168
3 127 168 134
3 169 166 170
3 169 170 167
3 169 167 133
3 169 133 136
3 130 166 169
3 130 169 136
3 171 172 173
3 171 173 174
3 172 173 143
3 172 143 140
3 143 173 174
3 143 174 144
3 175 172 140
3 175 140 137
3 176 175 137
3 176 137 141
3 177 178 176
3 177 176 179
3 178 176 141
3 178 141 145
3 145 178 177
3 145 177 146
3 144 174 180
3 144 180 147
3 146 177 181
3 146 181 152
3 182 180 183
3 182 183 184
3 180 183 149
3 180 149 147
3 149 183 184
3 149 184 153
3 185 186 181
3 185 181 187
3 186 181 152
3 186 152 150
3 150 186 185
3 150 185 154
3 188 182 184
3 188 184 189
3 188 189 155
3 188 155 158
3 153 184 189
3 153 189 155
3 190 185 187
3 190 187 191
3 190 191 161
3 190 161 156
3 154 185 190
3 154 190 156
3 158 188 192
3 158 192 157
3 161 191 193
3 161 193 162
3 194 195 192
3 194 192 196
3 194 196 164
3 194 164 163
3 157 192 196
3 157 196 164
3 197 198 199
3 197 199 200
3 197 200 170
3 197 170 166
3 201 193 198
3 201 198 197
3 201 197 166
3 201 166 165
3 162 193 201
3 162 201 165
3 202 200 194
3 202 194 203
3 202 203 168
3 202 168 167
3 163 194 203
3 163 203 168
3 170 200 202
3 170 202 167
3 204 205 206
3 204 206 207
3 205 206 172
3 205 172 175
3 172 206 207
3 172 207 171
3 208 209 205
3 208 205 204
3 209 205 175
3 209 175 176
3 176 209 208
3 176 208 179
3 210 207 211
3 210 211 212
3 207 211 174
3 207 174 171
3 174 211 212
3 174 212 180
3 213 208 204
3 213 204 214
3 215 216 208
3 215 208 213
3 216 208 179
3 216 179 177
3 177 216 215
3 177 215 181
3 217 210 212
3 217 212 218
3 180 212 218
3 180 218 182
3 219 215 213
3 219 213 220
3 181 215 219
3 181 219 187
3 221 217 218
3 221 218 222
3 182 218 222
3 182 222 188
3 223 219 220
3 223 220 224
3 187 219 223
3 187 223 191
3 225 221 222
3 225 222 226
3 225 226 192
3 225 192 195
3 188 222 226
3 188 226 192
3 227 228 221
3 227 221 225
3 229 224 228
3 229 228 227
3 229 227 199
3 229 199 198
3 230 223 224
3 230 224 229
3 230 229 198
3 230 198 193
3 191 223 230
3 191 230 193
3 231 227 225
3 231 225 232
3 231 232 194
3 231 194 200
3 195 225 232
3 195 232 194
3 199 227 231
3 199 231 200
3 233 234 235
3 233 235 236
3 234 235 207
3 234 207 204
3 207 235 236
3 207 236 210
3 204 234 233
3 204 233 214
3 237 233 236
3 237 236 238
3 210 236 238
3 210 238 217
3 239 240 233
3 239 233 237
3 240 233 214
3 240 214 213
3 213 240 239
3 213 239 220
3 241 237 238
3 241 238 242
3 241 242 221
3 241 221 228
3 217 238 242
3 217 242 221
3 243 239 237
3 243 237 241
3 243 241 228
3 243 228 224
3 220 239 243
3 220 243 224

